<?xml version="1.0" encoding="utf-8"?>
<!-- Generator: Adobe Illustrator 25.2.0, SVG Export Plug-In . SVG Version: 6.00 Build 0)  -->
<svg version="1.1" id="Layer_1" xmlns="http://www.w3.org/2000/svg" xmlns:xlink="http://www.w3.org/1999/xlink" x="0px" y="0px"
	 viewBox="0 0 385.43 100.94" style="enable-background:new 0 0 385.43 100.94;" xml:space="preserve">
<style type="text/css">
	.st0{fill:#2E3E66;}
	.st1{fill:#D8E4FA;}
	.st2{fill:#B3CFF9;}
</style>
<g>
	<path class="st0" d="M296.79,86.92c-3.66,1.15-7.25-0.31-10.88-0.3c-2.89-1-5.51-2.54-8.1-4.13c-0.7-0.77-1.4-1.53-2.1-2.3
		c-1.43-2.91-2.87-5.81-4.3-8.72c-1.27-2.55-3.26-4.08-6.14-4.38c-3.89-1.37-6.21,1.08-8.52,3.53c-0.67,0.45-1.35,0.9-2.02,1.34
		c-1.74,0.92-3.97,1.02-4.94,3.2c-1.01,2.27-2.14,4.49-3.21,6.73c-0.72,0.53-1.44,1.07-2.15,1.6c-3.22,1.07-6.44,2.14-9.66,3.22
		c-2.94-0.16-5.92,0.42-8.82-0.55c-0.93-0.31-1.81-0.01-2.3,0.96c-2.6,2.78-6.43,2.4-9.6,3.72c-3.74-0.65-7.66-2.32-10.55,1.84
		l-0.06,0.06c-3.93,0.12-7.15,2.42-10.77,3.52c-3.24,0.71-6.47,1.42-9.71,2.12c-3.68,0.24-7.35,0.49-11.03,0.73
		c-3.22-0.61-6.44-1.22-9.66-1.83c-3.8-1.03-6.78-4-10.79-4.53l-0.06-0.06c-3.58-4.97-11.83-4.4-14.45-0.33
		c-1.53,2.38-4.22,3.42-6.5,4.91c-3.16,1.47-6.43,2.63-9.81,3.51c-3.62,0.28-7.22,0.29-10.78-0.54c-3.71-1.27-6.79-3.56-9.74-6.05
		c-0.65-0.66-1.3-1.32-1.96-1.97c-2.16-2.96-4.96-5.05-8.42-6.26c-3.63-2.95-7.77-3.84-12.33-3.07c-3.64,0.28-6.32,2.22-8.55,4.94
		c-1.63,1.68-3.25,3.37-4.88,5.05c-1.8,1.13-3.61,2.25-5.41,3.38c-3.83,0.32-7.52-0.15-10.99-1.9c-0.76-0.55-1.52-1.09-2.28-1.64
		c-2.31-1.98-4.9-3.12-8.01-2.7c-3.76-1.08-7.34-0.81-10.62,1.49c-0.43,0.16-0.85,0.32-1.28,0.48c-2.74,0.98-5.3,2.44-8.2,2.99
		c-6.25,0.06-10.72-3.34-14.66-7.65C1.19,85.81,1.44,83.43,0,81.9c0.28-5.96,1.61-7.19,6.15-5.71c1.31,1.07,2.75,1.95,3.83,3.35
		c1.45,1.9,3.42,1.72,5.14,0.46c1.8-1.32,2.12-3.15,0.87-5.1c-0.74-1.15-1.53-2.26-2.29-3.38c-1.01-3.16-2.55-6.3-0.46-9.61
		c1.34-0.99,2.67-1.98,4.01-2.97c3.06-1.51,6.15-2.8,9.63-1.44c0.94,0.99,1.82,1.12,2.91,0.08c2.31-2.21,5.05-2.48,8-1.48
		c2.54,1.11,4.12,3.3,5.93,5.24c0.63,2.09,0.39,4.89,3.82,4.7c2.36,1.48,4.47,3.23,5.98,5.63c0.48,1.91,0.84,3.88,0.09,5.75
		c-0.64,1.6-1.1,3.06,0.36,4.38c1.45,1.3,3.09,1.34,4.78,0.46c4.71-1.35,5.75-3.1,6.01-10.02c2.48-6.88,7.05-11.01,14.65-11.16
		c2.06,0.24,4.13,0.42,6.06,1.25c1.21,0.76,2.43,1.52,3.64,2.28c4.01,3.99,7.02,4.17,10.96,0.69c1.91-0.81,2.62-1.99,1.44-3.98
		c-1.92-3.24-2.42-6.8-2.06-10.5c0.27-0.91,0.53-1.81,0.8-2.72c3.57-5.31,9.01-6.27,14.76-5.96c1.82,0.1,2.41-0.37,2.8-1.92
		c0.25-0.98,0.48-2.36,1.18-2.76c4.38-2.51,3.68-6.71,3.99-10.67c0.19-2.37,0.83-4.71,1.27-7.07c1.94-3.4,4.12-6.63,6.69-9.59
		c0.23,0.04,0.35-0.06,0.36-0.3c3.04-2.03,6.23-3.75,9.73-4.86c3.57-0.96,7.13-2,10.89-1.78c3.23,0.48,6.46,0.96,9.69,1.44
		c1.79,1.49,3.15,1.38,5.32-0.04c8.3-5.4,16.98-6.55,25.73-0.76c1.07,1.17,2.53,2.18,3.13,3.55c1.69,3.87,4.18,3.71,7.24,1.93
		c3.69-0.01,7.37-0.02,11.06-0.02c1.8,0.37,3.6,0.74,5.41,1.11c1.61,0.67,3.21,1.35,4.82,2.02c3.49,2.07,6.73,4.48,9.78,7.15
		c0.44,0.56,0.87,1.12,1.31,1.68c2.11,2.78,4.05,5.67,5.54,8.84c0.31,1.87,1.2,3.69,0.73,5.64c-0.74,3.08,0.44,4.16,3.45,3.51
		c2.71,0.83,5.63,0.96,8.18,2.35c0.52,0.3,1.04,0.59,1.56,0.89c2.16,2.16,4.67,4.06,5.77,7.07c0.96,2.63,2.5,2.79,4.55,1.23
		c4.18,0.01,8.08-0.72,11.04-4.05c4.05-0.69,8.92,0.13,10.2-5.6l0.21-0.07c0,0,0.03-0.22,0.03-0.23c2.78-2.53,6.21-3.87,9.59-5.32
		c3.63-0.49,7.26-0.83,10.91-0.11c3.4,0.85,6.75,1.81,9.81,3.58c0.91,0.97,1.82,1.95,2.72,2.92c2.13,3.1,3.86,6.43,5.48,9.82
		c0.1,1.83,0.08,3.76,2.85,3.2c3.33,1,6.09,2.88,8.33,5.53c0.34,0.73,0.67,1.45,1.01,2.18c0.38,1.41,0.54,3.08,2.55,3.03
		c2.76-0.08,4.89,1.57,7.28,2.5c1,1.35,1.99,2.7,2.99,4.05c0.19,0.77,0.42,1.53,0.55,2.31c0.92,5.37,3.31,6.24,7.8,2.79
		c1.68-1.59,2.66-3.62,3.54-5.71c1.93-1.78,4.34-2.23,6.83-2.44c3.75,0.04,7.34,0.74,10.66,2.55l0.04,0.04
		c3.04,3.01,5.57,6.3,5.83,10.81c-0.25,3.47-2.69,4.47-5.6,4.92c-2.47-0.73-4.61-2-6.14-4.09c-1.9-2.6-4.2-3.25-7.09-1.82
		c-3.29,1.2-4.72,4.62-7.57,6.34c-2.26,1.4-4.38,3.06-6.97,3.87c-1.15,0.25-2.3,0.5-3.45,0.76c-6.18-0.29-12.28-0.81-16.95-5.68
		c-1.44-1.5-2.98-1.36-4.42,0.13c-2.97,1.73-6.29,1.81-9.57,2.09c-3.99-0.41-7.78-1.35-11.04-3.84c-1.03-1.13-2.06-1.27-3.53-0.58
		C301.09,85.64,298.9,86.2,296.79,86.92z M39.96,68.02c-0.24,0.22-0.48,0.45-0.72,0.67c-0.21,0.21-0.43,0.41-0.64,0.62
		c-1.06,0.05-2.68,0.86-3.01-0.15c-0.3-0.92,1.63-0.6,2.35-1.26c0.08-0.08,0.16-0.16,0.24-0.24c0.22-0.25,0.45-0.51,0.67-0.76
		c0.89-1.5,4.19-1.68,2.76-4.38c-1.05-1.98-2.97-3.18-5.36-3.24c-3.25-0.08-4.78,1.87-3.95,5.01c0.27,1.02,0.54,2.75-0.05,2.93
		c-3.12,0.96-3.04,3.73-3.87,6.02c-0.18,0.5-0.44,1.21-1.15,0.78c-0.42-0.26-0.12-0.78,0.1-1.21c1.56-3.02,0.32-4.98-2.41-6.44
		c-0.59-0.32-2.25,0.21-1.58-1.24c0.49-1.05,1.62-0.3,2.43,0.09c0.51,0.25,0.98,0.59,1.47,0.88c0.5,0.29,0.88,1.34,1.59,0.53
		c0.58-0.67,1.06-1.57,0.47-2.52c-0.78-1.25-2.12-1.45-3.35-1.3c-2.74,0.34-5.38,1.11-7.56,2.95c-3.03,2.54-3.27,3.95-1.24,7.35
		c1.3,2.18,2.45,4.37,2.32,7.06c-0.13,2.61-1.77,3.88-3.84,4.79c-1.94,0.85-3.61,0.06-4.96-1.36c-1.17-1.24-2.15-2.67-3.35-3.87
		c-0.9-0.9-2.02-1.63-3.35-0.6c-1.29,0.99-1.88,2.35-1.6,3.91c0.17,0.95,0.91,1.95,1.8,0.64c1.47-2.16,1.86,0.81,2.88,0.46
		c0.22,1.29-0.25,2.06-1.63,2.1c-0.28-0.48,0.71-1.47-0.52-1.52c-0.65-0.03-1.06,0.61-0.78,1.2c0.28,0.58,0.86,1.03,1.3,1.53
		c0.91,0.84,1.74,1.79,2.76,2.46c0.59,0.38,1.27,2.21,2.25,0.3c0.18-0.24,0.36-0.49,0.54-0.73c0.51-0.43,1.01-0.85,1.52-1.28
		c0.67,0.24,0.63,0.78,0.56,1.33c-0.84,0.58-1.89,1.34-1.52,2.33c0.42,1.11,1.76,1.13,2.9,0.99c4.21,0.94,7.66-1.22,11.06-3.02
		c6.25-3.3,12.35-2.53,18.51-0.02c1.06,0.43,1.87,1.01,2.01-0.77c0.03-0.43,0.51-0.81,1-0.48c0.16,0.11,0.17,0.61,0.1,0.9
		c-0.53,2.45,0.08,3.12,3.26,3.54l-0.03-0.03c0.09,0.28,0.12,0.75,0.27,0.8c3.96,1.1,7.84,1.69,11.34-1.38
		c1.9-1.67,3.7-3.41,5.38-5.3c6.29-7.04,14.34-7.99,22.51-3.2c3.99,2.34,7.68,4.94,10.83,8.3c1,1.06,1.44,0.92,1.56-0.5
		c0.91-0.73,1.82-1.46,2.73-2.19c0.57,0.36,0.26,0.71-0.01,1.07c-2.7,3.77-2.66,3.72,1.16,6.03c7.22,4.37,14.5,3.31,21.73,0.17
		c3.03-1.31,6.16-2.63,8.1-5.57c0.29-0.44,1.25-1.31-0.04-1.44c-2.06-0.2-2.45-1.94-3.42-3.13c-0.46-0.57-1.31-1.49-0.57-2.09
		c0.89-0.73,1.35,0.52,1.66,1.07c0.74,1.35,2.01,2.13,3.29,2.28c4.73,0.57,9.27-0.28,12.75-3.71c1.92-1.88,3.61-4.43,1.22-7.21
		c-1.55-1.81-3.24-3.39-5.69-4.23c-2.42-0.83-4.77-0.35-7.14-0.62c-1-0.12-2.83,0.24-2.28-1.56c0.88-2.89-0.95-4.07-2.81-5.19
		c-7.05-4.25-11.35-4.8-19.06,1.36c-6.84,5.46-14.02,8.76-22.65,4c-0.57-0.35-1.14-0.7-1.71-1.05c-0.54-0.39-1.09-0.78-1.63-1.18
		c-8.26-5.08-20.29-0.47-21.02,10.3c-0.27,3.95-5.65,8.1-9.58,7.9c-4.43-0.22-8.01-5.46-6.65-10.52c0.68-2.51,0.13-3.93-1.77-5.21
		c-2.14-1.43-4.3-1.54-6.28,0.23c-1.41,1.25-3.14,1.27-4.81,1.57c-0.38,0.07-0.98-0.01-1.18-0.26c-0.36-0.46,0.13-0.79,0.48-1.09
		c0.52-0.44,1.03-0.9,1.55-1.35c0.38-0.31,0.77-0.62,1.15-0.93c0.21-0.24,0.42-0.48,0.63-0.73c0.05-0.25,0.11-0.5,0.16-0.75
		C40.37,67.79,40.16,67.9,39.96,68.02z M155.21,84.52c-0.33,0.31-0.66,0.62-0.99,0.94c-0.59,0.08-0.73,1.38-1.64,0.62
		c-0.96-1.62-1.71-0.66-2.47,0.2c-2.63,1.15-2.42,2.21,0.07,3.3c1.15,0.5,2.24,1.15,3.32,1.79c16.85,9.92,33.46,6.16,49.97-0.96
		c1.78-0.77,2.88-2.83,5.08-2.94l-0.04-0.04c5.71,3.49,14,0.95,16.33-4.99c0.26-0.65,0.66-1.36,1.42-1.17
		c0.19,0.05,0.09,1.24,0.12,1.91c-0.22,0.21-0.64,0.58-0.62,0.61c0.44,0.57,0.72,0.09,1.04-0.19c0.22-0.23,0.44-0.46,0.66-0.68
		c0.19,0.17,0.37,0.34,0.56,0.51c-0.52,1.85,0.73,1.84,1.94,1.82c2.88-0.05,5.72-0.25,8.49-1.16c5.21-1.71,10.09-8.47,9.27-13.88
		c-1.31-8.7-9.72-15.38-18.37-13.46c-1.78,0.39-3.49,1.13-5.23,1.72c-0.42,0.14-0.86,0.51-1.26,0.09c-0.56-0.59,0.02-1.06,0.34-1.45
		c0.77-0.94,2.25-1.79,2.3-2.74c0.15-3.02-4.5-7.99-7.97-9.1c-0.56-0.18-1.9,0.47-1.55-0.82c0.18-0.67,1.48-0.67,2.2-0.33
		c3.39,1.63,6.37,3.69,7.47,7.61c0.31,1.11,0.39,2.68,2.4,1.76c1.63-0.74,1.79-1.7,1.26-3.29c-1.43-4.31-9.07-8.61-14.69-7.98
		c-1.57,0.18-3.19,0.18-4.72,0.87c-1.55,0.7-0.54,3.47-2.31,3.17c-0.63-0.11-0.8-2.81-1.26-4.31c-0.13-0.41-0.55-0.72-0.83-1.09
		c-4.34-5.65-10.22-8.35-17.16-7.49c-7.83,0.97-11.03,3.24-12.73,8.73c-0.6,1.94-0.09,2.47,1.77,2.55c3.1,0.14,6.19,0.41,9.29,0.67
		c0.5,0.04,1.41-0.31,1.41,0.39c0,0.79-0.86,0.28-1.34,0.33c-2.02,0.2-4.14-0.72-6.08,0.48c1.65,1.94,3.97,1.38,6.08,1.63
		c1.33,0.16,2.75,0.02,3.89,0.95c-1.23,0.81-2.51-0.11-3.76,0.12c-0.73,0.13-1.9-0.42-2.08,0.5c-0.2,1.01,0.87,1.63,1.8,1.71
		c2.63,0.22,5.29,0.24,7.92,0.47c0.84,0.07,2.37-0.25,2.39,0.57c0.02,0.81-1.42,0.32-2.21,0.35c-1.72,0.06-3.45-0.02-5.18,0.03
		c-0.72,0.02-1.95-0.45-2.04,0.42c-0.1,0.96,1.2,0.84,1.92,0.88c2.99,0.17,5.98,0.22,8.96,0.36c0.53,0.03,1.4,0.13,1.34,0.77
		c-0.06,0.72-0.87,0.31-1.33,0.3c-2.07-0.05-4.14-0.2-6.21-0.23c-0.5-0.01-1.86,0.42-1.01,0.79c2.07,0.9,2.88,3.51,5.35,3.66
		c4.02,0.24,8.03,0.48,12.05,0.72c0.26,0.51-0.09,0.84-0.36,1.18c-2.74-0.2-5.47-0.44-8.22-0.59c-0.76-0.04-1.53,0.16-2.3,0.25
		c0.22,1.25,1.29,1.06,2.13,1.28c5.65,1.48,11.41,0.1,17.09,0.67c1.5,0.15,3.23-0.67,4.46,0.89c-1.35,0.88-2.77-0.12-4.14,0.14
		c-0.54,0.1-1.54,0.27-1.54,0.4c0.01,0.83,0.78,1.07,1.43,1.13c3.08,0.31,6.18,0.52,9.26,0.84c0.85,0.09,2.42-0.21,2.33,0.71
		c-0.11,1.09-1.4,0.16-2.18,0.15c-1.03-0.01-2.07-0.2-3.09-0.13c-1.61,0.11-4.71-0.35-4.57,0.26c0.49,2.01,2.89,0.83,4.43,1.33
		c1.32,0.43,2.9-0.17,4.04,1.01c-1.27,0.9-2.59-0.11-3.89,0.11c-1.09,0.18-3.13-0.34-3.13,0.33c0,1.48,1.78,0.8,2.79,1.1
		c0.44,0.13,0.92,0.1,1.35,0.24c0.41,0.12,1.01,0.23,0.86,0.81c-0.05,0.18-0.73,0.22-1.12,0.28c-1.32,0.2-3.49-1.36-3.81,0.6
		c-0.35,2.17,2.4,0.76,3.41,1.71c0.08,0.08,0.15,0.18,0.24,0.29c-3.07,0.73-5.36,0.7-5.9-3.44c-0.38-2.94-3.35-4.2-7.62-4.03
		l0.07,0.06c-2.05-1.32-4.26-1.18-6.48-0.66c-1.29,0.3-2.83,0.11-3.7,1.41c-0.51,0.76-0.05,2.48-1.34,2.29
		c-1.23-0.18-0.57-1.75-0.82-2.7c-0.17-0.66-0.28-1.44-0.69-1.91c-4.38-4.97-9.18-9.07-16.55-7.3c-2.45,0.59-4.9,1.14-7.35,1.71
		c-0.17-0.19-0.34-0.38-0.51-0.58c2.28-2.9,5.24-4.71,8.85-5.51c0.6-0.13,1.54-0.16,1.51-1.02c-0.01-0.41-0.64-0.89-1.09-1.19
		c-6.18-4.15-12.74-5.18-19.53-1.79c-4.48,2.24-8.92,4.09-14.08,3.39c-1.58-0.22-3.21-0.12-4.82-0.18c-0.64-0.02-1.69,0.28-1.68-0.6
		c0-0.93,1.05-0.43,1.6-0.44c3.56-0.09,7.13-0.09,10.69-0.15c0.61-0.01,1.23-0.29,1.22-0.95c-0.01-0.52-0.62-0.49-1.07-0.5
		c-1.11-0.02-2.25,0.51-3.34-0.13c0.9-1.47,2.44-0.84,3.7-1.11c0.56-0.12,1.15-0.05,1.72-0.15c1.04-0.19,2.42-0.65,2.28-1.66
		c-0.14-1-1.54-0.23-2.36-0.4c-0.58-0.12-1.61,0.4-1.66-0.43c-0.05-0.83,1.03-0.78,1.66-0.74c4.24,0.29,8.05-1.77,12.16-2.16
		c0.52-0.05,1.16,0.04,1.36-0.69c-0.44-0.1-0.87-0.28-1.31-0.29c-2.06-0.07-4.13-0.09-6.19-0.15c-0.39-0.01-1.03,0.29-1-0.45
		c0.01-0.18,0.69-0.43,1.08-0.46c2.98-0.22,5.96-0.37,8.94-0.58c0.53-0.04,1.27-0.09,1.23-0.85c-0.04-0.84-0.84-0.63-1.33-0.64
		c-2.25-0.04-4.5-0.02-6.75-0.02c1.8-0.77,3.62-0.8,5.42-1.02c1.05-0.13,2.81,0.29,2.91-1.08c0.12-1.82-1.64-0.9-2.62-1.05
		c-0.54-0.08-1.26,0.13-1.24-0.69c0-0.15,0.95-0.34,1.48-0.4c1.56-0.15,3.17,0.18,4.32-1.49c1.79-2.62,4.68-3.65,7.54-4.52
		c8.84-2.69,17.75-0.58,26.63-0.26c0.13,0,0.24,0.33,0.45,0.64c-2.51,0-4.91-0.04-7.32,0.03c-0.54,0.01-1.58-0.39-1.56,0.55
		c0.01,0.65,1,0.86,1.68,0.88c2.18,0.07,4.37,0.08,6.55,0.11c0.18,0.41,0.35,0.82,0.53,1.23c-1.25-0.11-2.5-0.28-3.75-0.32
		c-0.74-0.02-1.92-0.19-1.91,0.83c0.01,0.71,1.07,1.1,1.94,1.13c0.92,0.03,1.84,0.09,2.76,0.05c2.99-0.13,5.97-0.33,8.96-0.45
		c0.47-0.02,1.24-0.29,1.26,0.61c0,0.09-0.77,0.24-1.2,0.28c-3.42,0.3-6.84,0.58-10.26,0.87c7.51-0.12,14.61,2.91,22.08,2.83
		c0.74-0.01,2.09-0.43,2.08,0.38c-0.01,1.26-1.4,0.39-2.13,0.64c-0.61,0.21-1.48-0.26-1.84,0.69c1.62,0.74,3.73-0.52,5.24,1.37
		c-0.71,0-1.26-0.04-1.8,0.01c-0.72,0.06-1.86-0.37-1.89,0.77c-0.03,0.98,0.41,2.07,1.67,2.29c0.79,0.14,1.6,0.23,2.4,0.23
		c2.87,0.03,5.75,0.01,8.62,0.01c0,0.29,0,0.59-0.01,0.88c-2.15,0.13-4.31,0.26-6.46,0.39c-1.28-0.04-2.58-0.59-3.82,0.17
		c1.09,1.13,2.53,0.56,3.81,0.78c0.8,0.38,2.52,0.07,2.34,0.83c-0.3,1.3-1.6-0.2-2.48,0.14c-0.3,0.11-0.7-0.09-1.02-0.02
		c-0.81,0.18-2.13-0.57-2.31,0.7c-0.18,1.23,1.1,1.24,1.98,1.31c2.29,0.17,4.58,0.35,6.88,0.4c2.07,0.05,4.13-0.09,6.2-0.08
		c0.38,0,1.08,0.38,1.07,0.56c-0.05,0.9-0.83,0.44-1.25,0.45c-2.65,0.06-5.29,0.02-7.94,0.07c-0.48,0.01-1.24-0.41-1.4,0.4
		c-0.04,0.21,0.55,0.64,0.92,0.83c4.23,2.16,7.62,6.49,13.23,5.16c0.4-0.1,0.9,0.14,1.33,0.29c0.4,0.14,1.11,0.46,1.09,0.54
		c-0.15,0.57-0.68,0.31-1.06,0.3c-1.49-0.02-2.99-0.14-4.48-0.11c-0.7,0.02-1.83-0.39-1.95,0.73c-0.12,1.22,0.95,1.39,1.91,1.43
		c3.22,0.12,6.44,0.2,9.65,0.32c0.79,0.03,1.28-0.19,1.51-1.01c0.72-2.56,1.32-5.03,0.04-7.69c-3.34-6.95-9.34-9.29-16.45-10.16
		c-2.12-0.26-4.79,1.54-5.8,0.32c-1.2-1.44,1.34-3.42,1.79-5.43c1.25-5.52-1.52-9.34-4.84-12.95c-9.12-9.91-20.06-14.23-33.48-10.48
		c-1.99,0.56-3.43-0.26-4.63-2.45c-0.38-0.69-0.98-1.27-1.54-1.84c-6.86-6.98-24.44-6.86-31.54,0.23c-0.8,0.8-1.7,2.47-2.52,1.87
		c-0.96-0.71,0.39-1.99,0.99-2.87c1.15-1.68,0.84-2.66-1.22-2.54c-5.14,0.28-10.32-0.05-15.38,1.53c-10.57,3.32-18,9.36-19.56,21.04
		c-0.3,2.27,0.13,2.92,2.44,2.26c4.22-1.19,8.2,0.05,11.22,2.81c1.61,1.48,2.96,3.34,4.88,4.57c-0.19,0.16-0.37,0.32-0.56,0.48
		c-2.66-0.94-5.2-2.41-8.19-1.96c-1.3,0.19-3.56,1.12-3.68,0.25c-0.2-1.48,2.35-0.48,3.2-1.66c-7.4-0.81-12.77,2.45-15.64,9.49
		c-0.33,0.8-0.72,1.45-1.74,1.19c-0.52-1.3-1.72-1.29-2.82-1.47c-0.91-0.15-2.35-0.1-2.41,0.55c-0.09,0.98,1.32,0.45,2.03,0.79
		c0.79,0.38,1.74,0.43,2.62,0.63c1.62,0.62,2.5,1.88,2.99,3.47c-0.17,0.12-0.33,0.26-0.47,0.41c-0.85-0.05-1.32,2.27-2.46,0.39
		c0.22-0.22,0.43-0.44,0.65-0.66c1.64-0.14,0.81-1.03,0.33-1.47c-2.16-1.98-5.39-2.8-7.69-3.01c-5.8-0.53-9.59,5.9-7.49,11.4
		c0.81,2.14,1.92,4.19,1.62,6.61c-0.09,0.77-0.25,2.02,0.12,2.25c0.82,0.51,1.68-0.36,2.47-0.76c0.5-0.26,0.95-0.64,1.39-1.01
		c0.6-0.51,1.74-1.31,1.64-1.56c-0.36-0.88-1.32-0.33-2.05-0.29c-0.46,0.03-1.05,0.17-1.11-0.37c-0.06-0.51,0.55-0.63,1.02-0.67
		c0.46-0.03,0.93,0.01,1.38-0.05c1.09-0.15,2.91,0.33,3-0.84c0.08-0.99-1.67-0.15-2.56-0.42c-0.37-0.11-1.01,0.13-0.97-0.56
		c0.01-0.21,0.49-0.62,0.65-0.57c3.35,0.93,5.67-1.88,8.66-2.33c7.62-1.13,14.42,2.7,21.77,3.06c-1.69,1.02-3.51-0.84-5.09,0.7
		c1.42,1.13,3.23,0.83,4.83,1.31c0.1,0.03,0.18,0.14,0.33,0.26c-0.34,0.1-0.64,0.19-0.94,0.28c-0.71,0.21-1.99-0.4-2.04,0.56
		c-0.07,1.23,1.32,0.95,2.15,1.1c1.53,0.28,3.08,0.48,4.62,0.71c-1.15,0.47-2.19,0.38-3.2,0.5c-0.78,0.09-2.15-0.57-2.16,0.83
		c-0.01,1.03,1.22,0.68,1.96,0.78c0.34,0.05,0.69-0.01,1.03,0.04c4.67,0.67,9.47,0.17,14.07,1.48c-0.81,0.2-1.61,0.16-2.41,0.21
		c-1.42,0.08-2.89-0.44-4.25,0.36c1.03,1.37,2.61,0.37,3.83,0.9c0.54,0.23,1.37-0.2,1.63,0.69c-0.54,0.06-1.09,0.09-1.63,0.18
		c-0.58,0.1-1.54-0.45-1.64,0.47c-0.08,0.71,0.77,1.14,1.46,1.21c2.04,0.22,4.09,0.33,6.42,0.51c-0.48,0.32-0.65,0.48-0.84,0.54
		c-1.63,0.51-4.6-0.86-4.7,0.78c-0.09,1.46,3.12,0.72,4.8,1.27c0.39,0.13,1.11-0.14,1.09,0.49c-0.02,0.63-0.66,0.35-1.05,0.34
		c-0.69-0.02-1.38-0.09-2.07-0.07c-0.65,0.02-1.69-0.14-1.72,0.66c-0.05,1.29,1.17,0.72,1.83,0.77c3.29,0.27,6.59,0.45,9.88,0.66
		c-2.8,0.54-5.58,0.75-8.31,0.49c-2.91-0.28-4.04,0.77-3.63,3.61c-0.16,0.06-0.31,0.12-0.47,0.18c0.08,0.09,0.17,0.18,0.25,0.27
		c0.05-0.17,0.1-0.34,0.15-0.51c0.52,0.48,1.75-2.24,1.8,0.39C155.55,83.95,155.38,84.23,155.21,84.52z M316.29,43.89
		c0.12,0.13,0.24,0.26,0.36,0.39c0.02-0.13,0.04-0.26,0.05-0.4c-0.15,0.03-0.31,0.05-0.46,0.08c-0.04-1.42-1.07-1.39-2.07-1.41
		c-3.09-2.53-6.88-2.96-10.58-3.13c-5.7-0.26-10.8,1.65-15.07,5.52c-1.32,1.2-2.15,2.29,0.73,2.55c1.84,0.17,2.01,0.56,1.63,1.17
		c-1.08,1.69-1.07,1.87,1.03,1.96c2.94,0.13,5.9,0.03,8.85,0.03c-3.52,1.51-7.25,0.21-10.74,1.55c-0.2,0.08-0.63-0.21-0.86-0.43
		c-3.34-3.3-7.05-1.32-10.65-0.73c-0.5,0.08-1.26,0.34-1.19,0.98c0.06,0.6,0.75,0.74,1.35,0.84c1.64,0.26,3.48-0.4,5.05,1.19
		c-0.97,0.05-1.75,0.07-2.53,0.15c-0.52,0.05-0.92,0.69-0.41,0.78c2.28,0.39,3.17,3.44,6.12,2.79c1.72-0.38,3.79-0.57,5.55,0.49
		c-1.72,0.8-3.53,0.03-5.28,0.31c-1.28,0.21-3.29-0.68-3.62,0.79c-0.19,0.83,2.13,0.32,3.24,0.74c0.39,0.15,1.07,0.55,1.04,0.63
		c-0.25,0.73-0.92,0.2-1.39,0.36c-1.09,0.39-2.95-1.05-3.21,1.34c-0.12,0.13-0.24,0.25-0.37,0.37c-1.17-4.1-4.26-6.03-8.09-7
		c-7.23-1.83-11.57,0.14-12.76,5.71c-0.03,0.31-0.19,0.79-0.07,0.89c0.38,0.29,0.47-0.15,0.61-0.4c1.21-0.33,1.11,0.57,1.2,1.29
		l0.05-0.06c-0.58,1.08-2.76-0.17-2.55,1.29c0.2,1.42,1.88,0.36,2.87,0.59c0.55,0.12,1.12,0.11,1.68,0.19
		c2.51,0.34,3.59-0.55,4.27-3.54l-0.05,0.07c1.75,0.42,2.14,0.92,0.62,2.43c-2.12,2.09-1.97,2.24,0.73,3.14l-0.04-0.05
		c-0.14,1.59,0.89,2.29,2.13,2.84c0,0-0.05-0.05-0.05-0.05c0.73,2.1,1.41,4.23,2.22,6.3c0.26,0.66,0.61,1.83,1.52,1.46
		c0.61-0.25,0.95-1.34,0.47-2.23l-0.06,0.06c2.09-0.41,1.33,1.68,2.12,2.44c1.15,1.1,1.09,1.17-0.51,2.2
		c-0.4-0.72,0.66-1.83-0.56-2.27c-0.32-0.12-1.09,0.08-1.16,0.29c-0.36,1.2,0.51,1.76,1.38,2.28c0.1,0.21,0.14,0.47,0.3,0.61
		c6.29,5.37,21.33,5.66,27.42,0.52c0.23-0.19,0.45-0.65,0.37-0.87c-0.08-0.22-0.53-0.36-0.85-0.43c-0.7-0.15-1.34-0.06-1.9,0.49
		c-0.43,0.43-1.09,0.68-1.35-0.08c-0.23-0.68,0.45-1.03,1.01-1.07c1.34-0.09,2.87-2.46,4.02,0.26c1.35-2.04,3.34-0.84,5.05-1.04
		c0.4-0.05,0.85-0.58,1.18-0.15c0.13,0.18-0.19,0.83-0.45,1.15c-0.79,0.97-1.6,1.94-2.49,2.82c-0.95,0.93-1.36,0.37-1.48-0.68
		c0.36-0.46,1.29-0.99,0.56-1.49c-0.83-0.58-0.88,0.48-1.1,1.02c-1.86,0.87-2.59,1.7-0.2,2.98c1.51,0.81,2.83,1.95,4.64,2.12
		c4.84,0.46,9.77,2.02,13.81-2.58c1.55-1.76,4.65-0.96,6.47-2.74c0.18,0.2,0.37,0.4,0.55,0.6c-0.16,0.49-0.33,0.98-0.48,1.48
		c-1.68,0.92-2.01,1.88-0.08,2.89c1.47,1.49,3.13,2.52,5.19,3.19c9.82,3.18,17.5-0.03,23.89-7.58c3.33-3.93,8.04-4.01,11.55-0.31
		c0.79,0.83,1.53,1.75,2.46,2.41c1.75,1.25,3.77,2.27,5.56,0.28c1.72-1.91,0.3-3.77-0.91-5.22c-5.66-6.79-14.98-6.73-20.57,0
		c-0.58,0.7-1.2,1.43-1.96,1.91c-4.36,2.78-10.01,2.62-10.31-4.84c-0.07-1.75-0.85-2.72-2.15-3.62c-3.62-2.5-5.8-2.71-8.48-1.19
		c-0.77,0.44-2.02-0.01-3.05,0.04c-0.45,0.02-1.27-0.3-1.19,0.61c0.02,0.24,0.66,0.55,1.05,0.62c2.16,0.37,4.56-0.41,6.73,1.29
		c-0.52,0.11-0.73,0.17-0.95,0.21c-1.82,0.31-3.72-1.2-5.5,0.23c1.71,0.97,3.6,0.22,5.37,0.55c1.26,0.23,2.8-0.42,3.67,1.11
		c-1.12-0.01-2.24-0.02-3.36-0.04c-0.23,0-0.46-0.05-0.69-0.03c-1.6,0.19-3.33-0.55-4.78,0.66c1.22,1.08,2.78,0.72,4.2,0.99
		c0.39,0.07,1.02-0.13,0.97,0.58c-0.01,0.12-0.58,0.35-0.84,0.29c-2.76-0.64-6.69,1.32-7.64-3.43c-0.08-0.38-0.61-0.67-0.93-1
		c-4.51-4.65-9.69-3.81-15.03-1.89c-0.63,0.23-1.41,1.29-2,0.2c-0.22-0.41,0.36-1.26,0.57-1.9c1.6-0.96,0.47-1.9-0.03-2.84
		c-0.28-0.48-0.49-1.03-0.87-1.41c-0.3-0.3-0.86-0.33-1.22-0.59c-0.35-0.25-1.76-0.63-0.13-1.04c1.05-0.27,2.03,0.26,2.74,1.11
		c0.21,0.26,0.28,0.62,0.47,0.91c0.45,0.7,0.58,1.97,1.9,1.28c0.58-0.3,1.39-0.74,1.51-1.26c0.28-1.15-0.97-1.39-1.66-1.83
		c-3.42-2.18-7.25-1.78-11.03-1.56c-0.58,0.03-1.35,0.91-1.69-0.12c-0.26-0.79,0.61-1.12,1.2-1.43c2.34-1.26,4.77-2.75,7.47-2.03
		c4.51,1.2,9.11,1.73,13.7,2.51c-1.68,0.22-3.34,0.2-4.99,0.24c-0.4,0.01-1.12,0.19-1.12,0.31c-0.01,0.58,0.55,0.65,0.99,0.69
		c2.63,0.27,5.26,0.5,7.88,0.78c0.29,0.03,0.78,0.35,0.77,0.53c-0.01,0.77-0.63,0.33-0.95,0.32c-2.18-0.1-4.36-0.26-6.54-0.39
		c-0.45-0.03-0.98,0.03-1.02,0.6c-0.01,0.22,0.35,0.66,0.55,0.66c3.08,0.08,5.89,0.81,8.24,2.94c0.15,0.14,0.74,0.07,0.9-0.1
		c1.16-1.26,3.49-1.66,3.74-3.32c0.27-1.85-1.3-3.39-2.86-4.42c-2.22-1.47-4.79-2.09-7.34-2.82c-1.03-0.3-4.67-0.11-2.1-3.27
		c0.33-0.41,0.41-1.29-0.39-1.35c-2.01-0.16-1.66-2.29-2.81-3.13c-0.26-0.45-0.52-0.9-0.78-1.35c-0.63-2.46-3.73-2.89-4.39-5.33
		C315.35,43.89,315.82,43.89,316.29,43.89z M256.17,66.7c0.04,0.24,0.08,0.48,0.12,0.72c-1.6,0.02-3.28-0.26-4.75,0.18
		c-0.72,0.21-1.1,1.74-1.5,2.73c-0.13,0.33,0.01,1.03,0.27,1.2c0.28,0.19,0.9,0.08,1.27-0.09c2.03-0.96,4.33-1.62,5.24-4.05
		c0.9-0.99,2.27-2.05,1.65-3.39c-0.57-1.24-2.25-0.74-3.46-0.77c-2.24-0.06-4.48-0.02-6.73-0.02c1.28,0.72,2.65,0.67,3.92,0.99
		c1.34,0.33,3.08-0.53,3.98,1.22c-1.94-0.07-3.89-0.15-5.83-0.18c-0.38-0.01-1.02-0.15-1.01,0.46c0.01,0.24,0.64,0.63,1.01,0.66
		C252.29,66.52,254.23,66.59,256.17,66.7z M209.21,39.79c0.47-0.2,1.23-0.4,1.64-1.15c-0.4-0.12-0.81-0.36-1.19-0.33
		c-0.64,0.06-1.74-0.59-1.7,0.81C207.98,39.57,208.42,39.84,209.21,39.79z M201.61,64.4c-0.45-0.23-0.71-0.46-0.98-0.46
		c-0.28-0.01-0.67,0.12-0.83,0.33c-0.2,0.27-0.06,0.66,0.35,0.6C200.58,64.81,200.99,64.61,201.61,64.4z"/>
	<path class="st1" d="M210.52,67.99c4.26-0.17,7.24,1.09,7.62,4.03c0.53,4.14,2.83,4.17,5.9,3.44c-0.09-0.11-0.15-0.21-0.24-0.29
		c-1.01-0.95-3.76,0.46-3.41-1.71c0.32-1.96,2.49-0.41,3.81-0.6c0.4-0.06,1.07-0.1,1.12-0.28c0.16-0.58-0.45-0.69-0.86-0.81
		c-0.43-0.13-0.92-0.11-1.35-0.24c-1.01-0.3-2.79,0.38-2.79-1.1c0-0.67,2.04-0.14,3.13-0.33c1.3-0.22,2.62,0.79,3.89-0.11
		c-1.13-1.18-2.72-0.58-4.04-1.01c-1.54-0.5-3.95,0.68-4.43-1.33c-0.15-0.61,2.96-0.15,4.57-0.26c1.02-0.07,2.06,0.12,3.09,0.13
		c0.77,0.01,2.07,0.94,2.18-0.15c0.09-0.92-1.49-0.63-2.33-0.71c-3.08-0.32-6.18-0.52-9.26-0.84c-0.65-0.07-1.42-0.3-1.43-1.13
		c0-0.13,0.99-0.3,1.54-0.4c1.37-0.26,2.79,0.74,4.14-0.14c-1.23-1.56-2.96-0.74-4.46-0.89c-5.68-0.57-11.44,0.81-17.09-0.67
		c-0.84-0.22-1.91-0.03-2.13-1.28c0.77-0.09,1.54-0.29,2.3-0.25c2.74,0.15,5.48,0.39,8.22,0.59c0.92,0.13,2.42,0.72,2.56-0.32
		c0.2-1.46-1.37-0.7-2.2-0.86c-4.02-0.24-8.03-0.48-12.05-0.72c-2.47-0.15-3.28-2.75-5.35-3.66c-0.85-0.37,0.5-0.8,1.01-0.79
		c2.07,0.03,4.14,0.18,6.21,0.23c0.46,0.01,1.27,0.42,1.33-0.3c0.05-0.64-0.81-0.74-1.34-0.77c-2.99-0.14-5.98-0.19-8.96-0.36
		c-0.72-0.04-2.02,0.08-1.92-0.88c0.09-0.87,1.32-0.4,2.04-0.42c1.72-0.05,3.45,0.03,5.18-0.03c0.79-0.03,2.23,0.46,2.21-0.35
		c-0.02-0.82-1.55-0.5-2.39-0.57c-2.63-0.23-5.28-0.25-7.92-0.47c-0.94-0.08-2-0.7-1.8-1.71c0.18-0.92,1.35-0.37,2.08-0.5
		c1.25-0.23,2.53,0.69,3.76-0.12c-1.15-0.93-2.57-0.79-3.89-0.95c-2.11-0.25-4.42,0.31-6.08-1.63c1.95-1.2,4.06-0.28,6.08-0.48
		c0.48-0.05,1.34,0.46,1.34-0.33c0-0.7-0.92-0.35-1.41-0.39c-3.09-0.26-6.19-0.53-9.29-0.67c-1.86-0.08-2.37-0.61-1.77-2.55
		c1.69-5.48,4.9-7.75,12.73-8.73c6.94-0.86,12.81,1.83,17.16,7.49c0.28,0.36,0.71,0.68,0.83,1.09c0.46,1.5,0.63,4.2,1.26,4.31
		c1.77,0.3,0.75-2.48,2.31-3.17c1.53-0.69,3.15-0.69,4.72-0.87c5.62-0.63,13.26,3.67,14.69,7.98c0.53,1.59,0.37,2.55-1.26,3.29
		c-2.01,0.91-2.09-0.65-2.4-1.76c-1.1-3.92-4.07-5.99-7.47-7.61c-0.72-0.34-2.02-0.35-2.2,0.33c-0.35,1.28,0.98,0.63,1.55,0.82
		c3.47,1.11,8.13,6.08,7.97,9.1c-0.05,0.94-1.54,1.79-2.3,2.74c-0.32,0.39-0.91,0.86-0.34,1.45c0.4,0.42,0.84,0.05,1.26-0.09
		c1.74-0.59,3.45-1.33,5.23-1.72c8.65-1.92,17.06,4.76,18.37,13.46c0.82,5.41-4.07,12.17-9.27,13.88c-2.77,0.91-5.62,1.11-8.49,1.16
		c-1.2,0.02-2.46,0.03-1.94-1.82c0.33-0.35,0.66-0.7,0.99-1.04c0.33-0.17,0.65-0.33,0.98-0.5c0.82,2.64,1.77,0.47,2.67,0.07
		c0.58,0.18,0.39,1.52,1.37,0.98c0.23-0.12,0.37-0.91,0.21-1.17c-0.63-1-1.02,0.52-1.63,0.24c-0.86-1.79-1.79-0.03-2.68-0.06
		c-0.21-0.41,0.38-1.19-0.46-1.24c-0.57-0.03-0.85,0.55-1.03,1.08c-0.33,0.38-0.65,0.75-0.98,1.12c-0.22,0.23-0.44,0.46-0.66,0.68
		c-0.14-0.14-0.28-0.28-0.42-0.42c-0.03-0.67,0.07-1.86-0.12-1.91c-0.77-0.19-1.17,0.52-1.42,1.17c-2.33,5.95-10.62,8.49-16.33,4.99
		c1.78,0.34,1.55-2.71,3.5-2.08c0.54,0.57-0.47,1.87,0.65,1.95c1.23,0.09,0.85-1.63,1.73-2.16c0.14-0.09,0.11-0.82,0.06-0.83
		c-0.94-0.2-1.21,0.78-1.87,1.09c-0.16,0.08-0.4-0.01-0.61-0.02c-0.63-0.54,0.16-3.25-2.07-1.37c-0.04-0.49,0.36-1.42-0.39-1.31
		c-0.78,0.11-1.57,0.83-1.03,1.95l0.05-0.01c-0.38-0.11-0.72,0.04-0.65,0.41c0.05,0.25,0.45,0.44,0.7,0.65
		c-0.06,0.17-0.04,0.32,0.07,0.46c0.14,0.45,0.35,0.91-0.09,1.32c-2.2,0.12-3.3,2.17-5.08,2.94c-16.51,7.13-33.12,10.88-49.97,0.96
		c-1.08-0.64-2.17-1.28-3.32-1.79c-2.49-1.09-2.7-2.15-0.07-3.3c0.22,0.22,0.44,0.44,0.65,0.66c-0.09,0.52-0.48,1.46,0.14,1.44
		c1.29-0.04,1.93-1,1.72-2.36l-0.03,0.06c0.91,0.76,1.05-0.54,1.64-0.62c0.22,0.25,0.44,0.51,0.66,0.76
		c-0.29,0.49-0.57,0.98-0.87,1.46c-0.32,0.52-1.29,1.04-0.53,1.65c0.73,0.58,1.13-0.37,1.53-0.88c0.85-1.09,1.73-2.16,2.51-3.29
		c0.47-0.68,1.94-1.3,1.02-2.14c-0.65-0.59-1.39,0.85-2.16,1.26c-0.22-0.21-0.43-0.42-0.65-0.63c-0.05-2.64-1.28,0.08-1.8-0.39
		l0.06,0.06c-0.41-2.84,0.72-3.89,3.63-3.61c2.73,0.26,5.51,0.06,8.31-0.49c-3.29-0.21-6.59-0.39-9.88-0.66
		c-0.66-0.05-1.88,0.52-1.83-0.77c0.03-0.8,1.07-0.64,1.72-0.66c0.69-0.03,1.38,0.05,2.07,0.07c0.4,0.01,1.04,0.29,1.05-0.34
		c0.02-0.63-0.7-0.36-1.09-0.49c-1.67-0.55-4.89,0.19-4.8-1.27c0.1-1.64,3.07-0.27,4.7-0.78c0.19-0.06,0.35-0.22,0.84-0.54
		c-2.34-0.18-4.39-0.3-6.42-0.51c-0.69-0.07-1.54-0.5-1.46-1.21c0.1-0.92,1.06-0.37,1.64-0.47c0.54-0.09,1.09-0.13,1.63-0.18
		c-0.26-0.89-1.09-0.46-1.63-0.69c-1.22-0.53-2.8,0.47-3.83-0.9c1.36-0.8,2.83-0.28,4.25-0.36c0.8-0.04,1.6-0.01,2.41-0.21
		c-4.6-1.31-9.4-0.81-14.07-1.48c-0.34-0.05-0.69,0.01-1.03-0.04c-0.73-0.1-1.97,0.25-1.96-0.78c0.01-1.4,1.38-0.74,2.16-0.83
		c1.02-0.12,2.06-0.03,3.2-0.5c-1.54-0.23-3.09-0.43-4.62-0.71c-0.83-0.15-2.22,0.13-2.15-1.1c0.06-0.96,1.34-0.35,2.04-0.56
		c0.3-0.09,0.6-0.18,0.94-0.28c-0.15-0.12-0.22-0.23-0.33-0.26c-1.6-0.49-3.41-0.18-4.83-1.31c1.58-1.54,3.4,0.33,5.09-0.7
		c-7.35-0.36-14.15-4.2-21.77-3.06c-2.99,0.44-5.31,3.26-8.66,2.33c-0.16-0.05-0.64,0.36-0.65,0.57c-0.04,0.68,0.6,0.45,0.97,0.56
		c0.89,0.27,2.64-0.58,2.56,0.42c-0.1,1.18-1.91,0.69-3,0.84c-0.45,0.06-0.92,0.02-1.38,0.05c-0.47,0.03-1.08,0.16-1.02,0.67
		c0.06,0.54,0.65,0.4,1.11,0.37c0.72-0.05,1.68-0.59,2.05,0.29c0.11,0.26-1.04,1.05-1.64,1.56c-0.44,0.37-0.88,0.76-1.39,1.01
		c-0.79,0.41-1.65,1.28-2.47,0.76c-0.37-0.23-0.21-1.48-0.12-2.25c0.29-2.42-0.81-4.48-1.62-6.61c-2.09-5.5,1.69-11.92,7.49-11.4
		c2.3,0.21,5.53,1.03,7.69,3.01c0.48,0.45,1.31,1.33-0.33,1.47c-0.81-0.56-1.86-1.34-2.49-0.24c-0.28,0.49,1.29,0.37,1.84,0.9
		c1.14,1.88,1.61-0.44,2.46-0.39c0.07,0.29,0.2,0.6,0.53,0.36c0.11-0.08-0.03-0.5-0.05-0.77c-0.49-1.59-1.37-2.85-2.99-3.47
		c0.19-0.17,0.39-0.34,0.58-0.5c1.03,0.25,1.42-0.4,1.75-1.19c2.88-7.04,8.24-10.3,15.64-9.49c-0.85,1.18-3.4,0.18-3.2,1.66
		c0.12,0.87,2.39-0.05,3.68-0.25c2.99-0.45,5.53,1.02,8.19,1.96c0.24,0.22,0.47,0.45,0.71,0.67c0.24,0.22,0.48,0.44,0.72,0.67
		c0.19,0.12,0.38,0.23,0.57,0.35c-0.04-0.25-0.09-0.51-0.13-0.76c-0.23-0.24-0.46-0.48-0.69-0.71c-0.21-0.23-0.41-0.46-0.62-0.69
		c-1.92-1.23-3.26-3.09-4.88-4.57c-3.01-2.76-6.99-4-11.22-2.81c-2.31,0.65-2.74,0.01-2.44-2.26c1.55-11.68,8.99-17.72,19.56-21.04
		c5.06-1.59,10.24-1.25,15.38-1.53c2.06-0.11,2.37,0.87,1.22,2.54c-0.6,0.88-1.95,2.16-0.99,2.87c0.82,0.6,1.72-1.07,2.52-1.87
		c7.1-7.1,24.68-7.21,31.54-0.23c0.56,0.57,1.17,1.15,1.54,1.84c1.2,2.19,2.64,3.01,4.63,2.45c13.43-3.75,24.36,0.57,33.48,10.48
		c3.32,3.61,6.09,7.44,4.84,12.95c-0.45,2.01-2.99,3.98-1.79,5.43c1.01,1.22,3.68-0.58,5.8-0.32c7.11,0.87,13.11,3.21,16.45,10.16
		c1.28,2.66,0.69,5.13-0.04,7.69c-0.23,0.82-0.72,1.04-1.51,1.01c-3.22-0.13-6.44-0.21-9.65-0.32c-0.96-0.03-2.03-0.21-1.91-1.43
		c0.11-1.12,1.24-0.72,1.95-0.73c1.49-0.03,2.99,0.08,4.48,0.11c0.38,0.01,0.92,0.26,1.06-0.3c0.02-0.09-0.69-0.4-1.09-0.54
		c-0.43-0.15-0.93-0.39-1.33-0.29c-5.61,1.34-9-3-13.23-5.16c-0.37-0.19-0.96-0.62-0.92-0.83c0.17-0.81,0.92-0.39,1.4-0.4
		c2.65-0.06,5.29-0.01,7.94-0.07c0.43-0.01,1.2,0.44,1.25-0.45c0.01-0.18-0.69-0.56-1.07-0.56c-2.07-0.02-4.14,0.12-6.2,0.08
		c-2.29-0.05-4.59-0.23-6.88-0.4c-0.88-0.07-2.16-0.08-1.98-1.31c0.18-1.27,1.51-0.52,2.31-0.7c0.32-0.07,0.73,0.13,1.02,0.02
		c0.88-0.34,2.17,1.17,2.48-0.14c0.18-0.76-1.55-0.45-2.34-0.83c0-0.32,0.01-0.63,0.01-0.95c2.15-0.13,4.31-0.26,6.46-0.39
		c0-0.29,0-0.59,0.01-0.88c-2.87,0-5.75,0.02-8.62-0.01c-0.8-0.01-1.61-0.1-2.4-0.23c-1.26-0.22-1.7-1.31-1.67-2.29
		c0.03-1.13,1.17-0.71,1.89-0.77c0.54-0.05,1.09-0.01,1.8-0.01c-1.51-1.89-3.62-0.63-5.24-1.37c0.36-0.95,1.23-0.47,1.84-0.69
		c0.74-0.26,2.12,0.61,2.13-0.64c0.01-0.81-1.34-0.39-2.08-0.38c-7.47,0.08-14.57-2.94-22.08-2.83c3.42-0.29,6.84-0.57,10.26-0.87
		c0.42-0.04,1.2-0.19,1.2-0.28c-0.02-0.9-0.79-0.63-1.26-0.61c-2.99,0.12-5.97,0.31-8.96,0.45c-0.92,0.04-1.84-0.01-2.76-0.05
		c-0.86-0.03-1.93-0.43-1.94-1.13c-0.01-1.02,1.16-0.85,1.91-0.83c1.25,0.03,2.5,0.21,3.75,0.32c0.47-0.69,0.2-1.06-0.53-1.23
		c-2.18-0.03-4.37-0.04-6.55-0.11c-0.68-0.02-1.67-0.23-1.68-0.88c-0.02-0.93,1.01-0.53,1.56-0.55c2.4-0.07,4.81-0.03,7.32-0.03
		c-0.21-0.31-0.33-0.63-0.45-0.64c-8.88-0.32-17.79-2.43-26.63,0.26c-2.86,0.87-5.75,1.91-7.54,4.52c-1.14,1.67-2.76,1.34-4.32,1.49
		c-0.53,0.05-1.47,0.24-1.48,0.4c-0.02,0.81,0.7,0.61,1.24,0.69c0.98,0.14,2.74-0.77,2.62,1.05c-0.09,1.37-1.86,0.95-2.91,1.08
		c-1.8,0.22-3.62,0.25-5.42,1.02c2.25,0,4.5-0.03,6.75,0.02c0.49,0.01,1.29-0.2,1.33,0.64c0.03,0.76-0.71,0.81-1.23,0.85
		c-2.98,0.21-5.96,0.37-8.94,0.58c-0.39,0.03-1.07,0.29-1.08,0.46c-0.03,0.73,0.61,0.43,1,0.45c2.06,0.06,4.13,0.08,6.19,0.15
		c0.44,0.02,0.87,0.19,1.31,0.29c-0.2,0.73-0.84,0.64-1.36,0.69c-4.11,0.39-7.92,2.45-12.16,2.16c-0.63-0.04-1.71-0.09-1.66,0.74
		c0.05,0.83,1.07,0.31,1.66,0.43c0.82,0.17,2.23-0.61,2.36,0.4c0.14,1.02-1.24,1.47-2.28,1.66c-0.56,0.11-1.16,0.03-1.72,0.15
		c-1.26,0.27-2.8-0.36-3.7,1.11c1.09,0.63,2.22,0.1,3.34,0.13c0.45,0.01,1.06-0.02,1.07,0.5c0.01,0.65-0.62,0.94-1.22,0.95
		c-3.56,0.06-7.13,0.06-10.69,0.15c-0.55,0.01-1.6-0.49-1.6,0.44c0,0.88,1.04,0.58,1.68,0.6c1.61,0.06,3.23-0.04,4.82,0.18
		c5.16,0.7,9.6-1.15,14.08-3.39c6.79-3.39,13.35-2.37,19.53,1.79c0.45,0.3,1.07,0.78,1.09,1.19c0.03,0.86-0.91,0.89-1.51,1.02
		c-3.61,0.8-6.56,2.61-8.85,5.51c-0.11,0.23-0.21,0.45-0.32,0.68c0.28-0.04,0.55-0.07,0.83-0.11c2.45-0.57,4.9-1.12,7.35-1.71
		c7.37-1.77,12.17,2.32,16.55,7.3c0.42,0.47,0.52,1.25,0.69,1.91c0.25,0.94-0.41,2.52,0.82,2.7c1.29,0.19,0.84-1.54,1.34-2.29
		c0.86-1.29,2.41-1.11,3.7-1.41c2.22-0.51,4.44-0.66,6.49,0.66c-0.55,0.06-1.11,0.11-1.65,0.19c-0.67,0.1-1.38,0.14-1.65,0.94
		c0.52,0.12,1.05,0.24,1.57,0.35c4.03,0.82,5.84,3.12,6.29,8.06c0.06,0.68-0.07,1.7,0.7,1.7c1.28-0.01,0.61-1.14,0.67-1.84
		C216.95,72.74,213.47,70.54,210.52,67.99z M159.19,71.79c0.23,0.33,0.49,0.34,0.77,0.07c-0.14-0.12-0.29-0.23-0.43-0.35
		c-0.09-0.55-0.48-0.61-0.91-0.52c-0.1,0.02-0.22,0.4-0.21,0.41C158.66,71.55,158.92,71.67,159.19,71.79z M188.85,20.02
		c-0.3-0.04-0.78-0.22-0.86-0.11c-0.27,0.38,0.12,0.5,0.41,0.61c0.24,0.38,0.4,0.86,0.74,1.13c0.87,0.7,0.54,3.06,1.96,2.35
		c0.87-0.43-0.4-2.2-1.17-3.17C189.66,20.5,189.22,20.29,188.85,20.02z M143.43,44.42c0.42-0.05,0.84-0.09,1.26-0.14
		c-0.27-1.61-1.67-1.48-2.77-1.74c-0.36-0.09-1.16-0.14-1.05,0.31c0.22,0.88,1.31,0.6,1.95,1c0.26,0.16,0.45,0.42,0.68,0.64
		c0.57,0.74-2.68,0.4-0.45,1.55c0.54,0.28,1.48,1.01,1.81,0.32C145.35,45.3,143.43,45.45,143.43,44.42z M171.94,92.9
		c0.91,0.54-0.88,1.77,0.48,2.09c0.81,0.19,1.05-0.73,1.33-1.28c0.33-0.64,1.37-1.29,0.72-2.01c-0.62-0.68-1.01,1.06-1.88,0.58
		c-0.67-0.1,0.67-2.24-0.91-1.1c-1.29,0.94-2.45,2.29-2.95,3.96c-0.02,0.08,0.3,0.39,0.43,0.38
		C170.69,95.32,170.57,93.32,171.94,92.9z M159.14,89.78c0.19,0.2,0.38,0.41,0.57,0.61c-0.93,2.15,0.67,1.78,1.84,1.85
		c1.21,0.22-0.21,1.97,1.05,1.96c0.89-0.01,0.93-1.16,1.39-1.76c0.69-0.89,1.43-1.75,2.09-2.66c0.23-0.32,0.49-1.02,0.36-1.13
		c-0.63-0.56-0.89,0.25-1.31,0.49c-1.42,0.8-1.28,3.41-3.63,3.14c-0.11-1.72,0.49-3.14,1.86-4.19c2.81-2.14-2.7-1.24-1.09-2.96
		c0.02-0.02-0.33-0.52-0.56-0.58c-0.35-0.09-4.49,4.8-4.32,5.11C157.87,90.55,158.53,90,159.14,89.78z M233.6,34.03
		c-0.2-6.87-8.54-15.65-16.22-17.05c-0.62-0.11-1.6-0.74-1.82-0.02c-0.26,0.87,0.94,0.72,1.48,0.91
		c8.49,3.03,14.15,8.48,15.42,17.77c0.05,0.39,0.04,0.98,0.65,0.9c0.2-0.03,0.44-0.5,0.48-0.8C233.66,35.18,233.6,34.6,233.6,34.03z
		 M244.57,71.85c-0.48-5.67-3.5-9.74-8.11-12.82c-0.71-0.48-1.5-0.56-2.31-0.4c-0.29,0.06-0.67,0.27-0.78,0.51
		c-0.21,0.49,0.32,0.4,0.57,0.55c8.52,4.9,9.7,7.54,7.75,17.37c-0.09,0.44-0.36,0.95,0.12,1.23c0.46,0.27,0.91-0.06,1.03-0.53
		C243.32,75.77,244.71,74.05,244.57,71.85z M181.2,7.33c-0.68,0.05-1.41,0-1.66,0.85c-0.01,0.02,0.46,0.26,0.71,0.28
		c7.66,0.82,12.94,4.68,15.54,12.04c0.12,0.34,0.23,1.05,0.85,0.82c0.5-0.18,0.32-0.74,0.26-1.18
		C196.06,14.19,187.39,7.12,181.2,7.33z M182.89,62.02c10.44,3.26,12.18,5.06,14.61,14.44c0.13,0.52-0.02,1.3,0.82,1.19
		c0.81-0.1,0.61-0.85,0.52-1.35C197.48,68.55,193.35,61.98,182.89,62.02z M151.75,9.07c-3.47-0.29-6.49,1.02-9.38,2.73
		c-0.49,0.29-1.11,0.83-0.76,1.33c0.52,0.74,0.89-0.19,1.29-0.42c3.35-1.98,6.95-2.82,10.84-2.6c1.17,0.06,2.27,0.98,3.49,0.28
		c-1.17-1.06-2.62-1.27-4.1-1.36C152.67,9,152.21,9.06,151.75,9.07z M195.74,36.64c-0.46-0.02-0.98-0.05-1.03,0.56
		c-0.01,0.13,0.46,0.34,0.73,0.45c3.17,1.29,5.94,3,6.9,6.6c0.12,0.44,0.23,1,0.83,0.91c0.64-0.1,0.42-0.66,0.38-1.07
		C203.26,41.33,198.44,36.74,195.74,36.64z M188.4,14.07c-0.23,0.08-0.44,0.16-0.65,0.23c0.15,0.24,0.25,0.56,0.46,0.7
		c2.56,1.7,4.45,3.9,5.23,6.94c0.14,0.52,0.5,0.87,0.92,0.62c0.24-0.15,0.35-0.86,0.22-1.2c-0.61-1.6-1.21-3.23-2.41-4.51
		C191.09,15.68,190.09,14.39,188.4,14.07z M196.17,78.18c-0.18-3.05-1.45-5.25-3.66-6.94c-0.49-0.37-1.02-0.49-1.58-0.13
		c0.23,0.34,0.39,0.75,0.69,1.01c1.9,1.62,3.2,3.55,3.38,6.13c0.04,0.53,0.08,1.28,0.84,1.19C196.02,79.42,196.1,78.48,196.17,78.18
		z M240.56,72.56c-0.13-0.66-0.17-1.49-0.47-2.21c-0.28-0.68-0.62-1.84-1.56-1.38c-0.67,0.33,0.06,1.21,0.3,1.81
		c0.55,1.34,0.28,2.69,0.11,4.06c-0.11,0.96-1.48,2.43-0.46,2.65c1.5,0.33,1.28-1.74,1.78-2.76
		C240.55,74.14,240.46,73.38,240.56,72.56z M250.76,48.13c-0.21,0.02-0.48-0.03-0.62,0.08c-0.42,0.31-0.05,0.61,0.14,0.79
		c2.02,1.96,3.3,4.3,3.84,7.06c0.09,0.45,0.37,0.85,0.92,0.8c0.15-0.02,0.34-0.25,0.41-0.42C256.07,54.94,252.4,48.46,250.76,48.13z
		 M229.32,32.42c-0.29-2.23-1-4.35-2.8-5.96c-0.5-0.45-1.17-1.07-1.74-0.45c-0.45,0.5,0.34,0.93,0.71,1.28
		c1.56,1.47,2.49,3.21,2.52,5.39c0.01,0.54-0.18,1.34,0.55,1.35C229.52,34.04,229.21,33.1,229.32,32.42z M222.82,53.92
		c-0.5-1.14-0.9-2.33-1.51-3.41c-0.44-0.78-1.57-1.85-2.09-1.38c-1.03,0.95,0.75,1.23,1.01,1.98c0.37,1.06,0.81,2.1,1.19,3.16
		c0.18,0.5,0.53,0.78,1.01,0.55C222.63,54.74,222.67,54.29,222.82,53.92z M173.59,50.07c-0.66,0.19-1.59,0.28-1.63,0.5
		c-0.18,1.1,0.81,0.78,1.37,0.83c0.94,0.1,1.75,0.41,2.45,1.04c0.67,0.6,1.17,2.38,2.07,1.45c0.75-0.78-0.71-1.92-1.58-2.55
		C175.48,50.77,174.48,50.47,173.59,50.07z M192.58,81.02c-0.62-0.81-0.19-3.11-1.97-2.68c-1.33,0.32,0.72,1.48,0.53,2.44
		c-0.04,0.21,0,0.45,0.03,0.67c0.06,0.59-0.6,1.57,0.43,1.64C192.75,83.16,192.46,82.03,192.58,81.02z M155.29,14.21
		c1.29-0.62,2.9,0.12,3.98-1.15c-0.81-0.59-1.72-0.28-2.56-0.2c-1.06,0.11-2.29-0.08-2.97,1.11
		C154.26,14.06,154.78,14.13,155.29,14.21z M169.05,91.22c-0.16-0.22-0.41-0.67-0.48-0.64c-1.36,0.52-1.75,1.93-2.57,2.95
		c-0.3,0.37-0.01,1,0.55,0.8C167.94,93.84,168.18,92.32,169.05,91.22z M237.04,74.97c-0.26-0.49,0.1-1.71-0.65-1.53
		c-1.47,0.36-0.5,1.92-0.87,2.89c-0.18,0.45-0.22,1.38,0.52,1.23C237.41,77.28,236.72,75.92,237.04,74.97z M220.15,55.24
		c-0.44-0.95-0.36-2.28-1.56-2.76c-0.58-0.24-0.8,0.43-0.53,0.78c0.74,0.93,0.3,2.57,1.68,3C220.29,56.43,220.13,55.67,220.15,55.24
		z M214.18,77.76c-0.63-0.84-0.11-2.49-1.85-2.75c-0.19-0.03-0.42,0.28-0.64,0.44c1.29,0.79,0.46,2.78,1.85,3.4
		C214.2,79.14,213.92,78.28,214.18,77.76z M183.58,94.9c1.43-0.19,1.14-1.71,1.8-2.51c0.12-0.15-0.05-0.54-0.08-0.83
		c-1.32,0.19-1.64,1.37-2.19,2.28C182.88,94.22,182.99,94.69,183.58,94.9z M180.53,95.17c1.09-0.33,0.88-1.43,1.18-2.23
		c0.07-0.19-0.25-0.76-0.31-0.74c-1.09,0.21-1.2,1.24-1.57,2.02C179.59,94.74,179.96,95.05,180.53,95.17z M199.23,42.43
		c-0.37,0.02-0.75,0.12-0.54,0.58c0.32,0.7,0.65,1.46,1.18,1.99c0.23,0.22,0.85-0.43,0.74-0.82
		C200.4,43.46,200.24,42.58,199.23,42.43z M149.79,32.25c-0.09,1.02,0.21,1.28,0.7,1.34c0.49,0.06,0.89-0.16,1-0.62
		c0.16-0.66-0.22-1.04-0.86-1.01C150.19,31.97,149.8,32.21,149.79,32.25z M134.32,54.57c0.5-0.11,1.39,0.14,1.38-0.48
		c-0.02-0.95-0.99-0.53-1.54-0.56c-0.43-0.02-1.3-0.3-1.21,0.54C133.01,54.76,133.79,54.56,134.32,54.57z M177.37,92.41
		c-0.63,0.63-1.39,1.33-1.33,2.47c0.01,0.26,0.13,0.8,0.61,0.49c0.92-0.6,1.03-1.69,1.39-2.61
		C178.12,92.56,178.01,92.03,177.37,92.41z M189.18,91.48c-0.03-0.31,0-0.8-0.45-0.62c-0.81,0.32-1.04,1.12-1.1,1.91
		c-0.02,0.21,0.45,0.67,0.49,0.65C188.88,93,188.94,92.2,189.18,91.48z M249.66,56.38c-0.59-0.18-1.2-0.43-1.83-0.51
		c-0.23-0.03-0.74,0.37-0.72,0.53c0.13,1.02,1.01,0.5,1.56,0.63C248.97,57.1,249.57,57.28,249.66,56.38z M188.01,25
		c-0.16-0.11-0.47-0.44-0.84-0.57c-0.39-0.14-0.71,0.21-0.54,0.56c0.18,0.36,0.56,0.68,0.93,0.85
		C187.79,25.93,188.26,25.79,188.01,25z M158.58,17.21c1.06,0.45,1.65,0.73,2.27,0.94c0.34,0.12,0.98,0.47,0.84-0.33
		c-0.1-0.58-0.76-0.83-1.36-0.84C159.91,16.99,159.49,17.09,158.58,17.21z M164.3,22.46c-0.27-0.63-0.61-1.05-1.2-1.04
		c-0.18,0-0.54,0.44-0.5,0.59c0.14,0.52,0.44,1.03,1.08,0.97C163.91,22.96,164.11,22.64,164.3,22.46z M201.32,52.55
		c0.48-0.06,0.84-0.24,0.65-0.64c-0.1-0.21-0.55-0.34-0.85-0.35c-0.27-0.01-0.82-0.02-0.54,0.52
		C200.7,52.32,201.11,52.43,201.32,52.55z M225.1,31.99c-0.32-0.39-0.51-0.86-0.83-0.98c-0.69-0.25-0.65,0.45-0.65,0.8
		c0.01,0.37,0.01,0.99,0.68,0.85C224.56,32.6,224.76,32.29,225.1,31.99z M197.18,89.47c-0.3,0.65-0.52,0.92-0.52,1.18
		c0,0.26,0.24,0.51,0.37,0.77c0.22-0.18,0.55-0.32,0.62-0.55C197.71,90.65,197.49,90.35,197.18,89.47z M232.92,76.42
		c0.52-0.13,0.69-0.4,0.58-0.78c-0.06-0.19-0.25-0.33-0.39-0.49c-0.21,0.21-0.56,0.39-0.6,0.64
		C232.47,75.98,232.79,76.24,232.92,76.42z M191.88,91.18c-0.59,0.28-0.71,0.83-0.74,1.39c0,0.05,0.73,0.28,0.83,0.17
		c0.27-0.29,0.47-0.72,0.53-1.12C192.54,91.38,192.36,90.93,191.88,91.18z M245.82,54.46c0.59-0.08,1.61,0.22,1.59-0.53
		c-0.02-0.58-1.12-0.46-1.76-0.44c-0.58,0.02-1.61-0.29-1.58,0.49C244.08,54.58,245.18,54.36,245.82,54.46z M188.45,81.37
		c-0.97-0.04-1.16,0.31-1.1,0.63c0.04,0.26,0.35,0.64,0.58,0.67c0.46,0.05,0.91-0.16,0.73-0.79
		C188.57,81.57,188.41,81.27,188.45,81.37z M222.95,81.88c0.54-0.01,0.79-0.39,0.8-0.83c0.01-0.29,0.18-1.04-0.56-0.7
		c-0.33,0.15-0.6,0.59-0.76,0.96C222.23,81.75,222.65,81.8,222.95,81.88z M216.07,85.17c-0.1,0.2-0.38,0.55-0.43,0.93
		c-0.09,0.62,0.59,0.78,0.85,0.62c0.26-0.16,0.31-0.75,0.33-1.15C216.83,85.36,216.85,84.82,216.07,85.17z M174.04,21.43
		c-0.24-0.36-0.36-0.73-0.59-0.83c-0.38-0.16-0.89-0.14-0.82,0.49c0.03,0.24,0.32,0.55,0.55,0.63
		C173.39,21.78,173.68,21.56,174.04,21.43z M207.11,82.79c-0.38-0.04-0.72-0.18-0.89-0.06c-0.24,0.16-0.34,0.51-0.5,0.78
		c0.26,0.07,0.6,0.27,0.76,0.17C206.71,83.54,206.84,83.18,207.11,82.79z M231.37,76.94c-0.22-0.18-0.44-0.4-0.47-0.38
		c-0.22,0.18-0.41,0.4-0.61,0.61c0.14,0.11,0.35,0.34,0.42,0.3C230.95,77.36,231.14,77.14,231.37,76.94z M184.19,86.28
		c0.03-0.5-0.13-0.74-0.52-0.69c-0.18,0.02-0.49,0.23-0.47,0.32c0.03,0.25,0.2,0.48,0.31,0.71
		C183.76,86.49,184.01,86.37,184.19,86.28z M211.37,78.24c-0.36-0.21-0.6-0.47-0.85-0.47c-0.31,0-0.67,0.22-0.47,0.62
		c0.12,0.24,0.42,0.51,0.66,0.53C210.87,78.94,211.08,78.56,211.37,78.24z M173.42,54.85c0.28,0.12,0.56,0.24,0.84,0.35
		c0.09-0.25,0.18-0.51,0.27-0.76c-0.3-0.05-0.6-0.13-0.89-0.13C173.57,54.32,173.51,54.62,173.42,54.85z M204.44,55.33
		c-0.17-0.31-0.27-0.49-0.37-0.68c-0.25,0.14-0.49,0.29-0.74,0.43c0.1,0.15,0.2,0.41,0.32,0.41
		C203.89,55.51,204.15,55.4,204.44,55.33z M216.93,56.55c-0.15-0.19-0.31-0.58-0.51-0.6c-0.22-0.02-0.56,0.27-0.68,0.5
		c-0.21,0.43,0.22,0.54,0.5,0.67C216.71,57.34,216.77,56.95,216.93,56.55z M201.4,88.87c-0.17-0.23-0.27-0.49-0.41-0.51
		c-0.16-0.03-0.48,0.11-0.52,0.24c-0.11,0.36,0.06,0.65,0.47,0.62C201.1,89.2,201.24,88.99,201.4,88.87z M220.07,85.03
		c0.2-0.09,0.48-0.12,0.56-0.27c0.07-0.11-0.08-0.5-0.2-0.53c-0.17-0.04-0.39,0.12-0.59,0.19
		C219.92,84.62,219.99,84.83,220.07,85.03z M209.11,79.38c-0.14-0.16-0.26-0.41-0.4-0.42c-0.19-0.02-0.51,0.09-0.57,0.24
		c-0.22,0.49,0.2,0.51,0.5,0.5C208.8,79.69,208.95,79.5,209.11,79.38z M141.74,21.7c-0.34,0.19-0.77,0.23-0.47,0.67
		c0.11,0.16,0.41,0.36,0.53,0.31c0.26-0.1,0.45-0.35,0.68-0.54C142.21,21.98,141.96,21.83,141.74,21.7z M151.71,48.27
		c0.02-0.1,0.04-0.21,0.06-0.31c-0.15,0.03-0.29,0.06-0.44,0.09c0.04,0.09,0.05,0.21,0.12,0.27
		C151.5,48.35,151.62,48.29,151.71,48.27z M116.33,54.63c0.18,0.11,0.35,0.29,0.53,0.31c0.16,0.02,0.48-0.11,0.5-0.22
		c0.08-0.37-0.13-0.58-0.52-0.45C116.65,54.33,116.5,54.5,116.33,54.63z M201.9,57.87c-0.07,0.17-0.17,0.33-0.2,0.5
		c-0.01,0.06,0.13,0.16,0.2,0.24c0.12-0.14,0.3-0.26,0.35-0.42C202.26,58.13,202.02,57.99,201.9,57.87z"/>
	<path class="st1" d="M91.24,70.71c8.63,4.76,15.81,1.46,22.65-4c7.71-6.16,12.01-5.62,19.06-1.36c1.85,1.12,3.69,2.3,2.81,5.19
		c-0.55,1.81,1.28,1.45,2.28,1.56c2.37,0.27,4.72-0.21,7.14,0.62c2.45,0.84,4.14,2.43,5.69,4.23c2.39,2.78,0.69,5.32-1.22,7.21
		c-3.49,3.42-8.02,4.28-12.75,3.71c-1.27-0.15-2.54-0.93-3.29-2.28c-0.3-0.55-0.77-1.79-1.66-1.07c-0.74,0.6,0.11,1.52,0.57,2.09
		c0.96,1.2,1.36,2.94,3.42,3.13c1.28,0.12,0.33,0.99,0.04,1.44c-1.94,2.94-5.07,4.26-8.1,5.57c-7.23,3.13-14.5,4.2-21.73-0.17
		c-3.83-2.31-3.86-2.26-1.16-6.03c0.26-0.37,0.57-0.71,0.01-1.07c0,0-0.04,0.05-0.04,0.05c0.67,0.66,0.88-0.07,1.23-0.41
		c0-0.29,0.01-0.59,0.01-0.88c-0.25,0.12-0.51,0.23-0.76,0.35c-0.2,0.03-0.39,0.1-0.57,0.19c-0.21-0.23-0.43-0.46-0.64-0.7
		c-0.13-1.06-0.84-1.11-1.29-0.44c-0.62,0.92-2.48,1.71-0.74,3.21c0.02,0.27,0.05,0.53,0.07,0.8c-0.12,1.42-0.56,1.56-1.56,0.5
		c-3.15-3.36-6.84-5.96-10.83-8.3c-8.17-4.79-16.23-3.84-22.51,3.2c-1.68,1.89-3.48,3.63-5.38,5.3c-3.51,3.07-7.38,2.47-11.34,1.38
		c-0.15-0.04-0.19-0.52-0.27-0.8c1.62-1.19,3.56-1.09,5.31-0.83c0.99,0.15,1.22-0.18,1.47-0.74c0.38-0.84,0.47-1.59-0.93-1.29
		c-0.3,0.06-5.02,0.4-5.82,0.75c-0.16-0.52,0.29-1.56-0.86-1.27c-0.68,0.17-1.12,0.91-0.66,1.55c0.65,0.92,1.01-0.41,1.59-0.37
		c-0.02,0.74-0.04,1.48-0.06,2.22c-3.17-0.42-3.78-1.09-3.26-3.54c0.06-0.29,0.06-0.79-0.1-0.9c-0.49-0.33-0.97,0.05-1,0.48
		c-0.14,1.78-0.95,1.2-2.01,0.77c-6.16-2.51-12.27-3.28-18.51,0.02c-3.4,1.8-6.85,3.96-11.06,3.02c0-0.42,0-0.84,0-1.26
		c0.48-0.85,1.01-1.72-0.73-1.4c-0.21-0.22-0.43-0.44-0.64-0.66c0.08-0.55,0.11-1.09-0.56-1.33c-0.37-0.04-0.73-0.08-1.1-0.12
		c0.33-2.9-1.26-0.23-1.79-0.62c-1.08-0.45,0.6-1.51-0.37-1.87c-0.69-0.26-0.88,0.5-1.2,0.93c-0.94,1.26,0.65,1.04,0.92,1.59
		c0.22,0.49,0.44,0.98,0.66,1.47c0.27,0.21,0.55,0.42,0.82,0.63c-0.98,1.92-1.66,0.09-2.25-0.3c-1.02-0.67-1.85-1.62-2.76-2.46
		c0-0.4,0-0.81,0-1.22c1.39-0.04,1.85-0.81,1.63-2.1c-1.02,0.35-1.41-2.62-2.88-0.46c-0.89,1.31-1.63,0.31-1.8-0.64
		c-0.28-1.56,0.31-2.92,1.6-3.91c1.33-1.03,2.45-0.3,3.35,0.6c1.2,1.2,2.18,2.63,3.35,3.87c1.35,1.42,3.02,2.21,4.96,1.36
		c2.07-0.9,3.71-2.18,3.84-4.79c0.13-2.69-1.03-4.88-2.32-7.06c-2.02-3.4-1.79-4.81,1.24-7.35c2.18-1.84,4.82-2.61,7.56-2.95
		c1.23-0.15,2.57,0.05,3.35,1.3c0.59,0.95,0.11,1.86-0.47,2.52c-0.71,0.81-1.09-0.24-1.59-0.53c-0.49-0.29-0.96-0.63-1.47-0.88
		c-0.81-0.39-1.94-1.13-2.43-0.09c-0.67,1.45,0.98,0.93,1.58,1.24c2.73,1.46,3.97,3.41,2.41,6.44c-0.22,0.43-0.52,0.95-0.1,1.21
		c0.71,0.43,0.96-0.27,1.15-0.78c0.83-2.28,0.75-5.05,3.87-6.02c0.58-0.18,0.31-1.91,0.05-2.93c-0.83-3.14,0.7-5.09,3.95-5.01
		c2.39,0.06,4.3,1.26,5.36,3.24c1.43,2.7-1.87,2.87-2.76,4.38c-0.23-0.2-0.46-0.4-0.69-0.6c0.31-0.44,0.91-1.23,0.37-1.41
		c-1.49-0.5-1.99,1.56-3.39,1.63c-0.09,0-0.26,0.49-0.23,0.52c0.9,0.61,1.73,0.08,2.58-0.19c0.23,0.27,0.47,0.54,0.7,0.81
		c-0.08,0.08-0.16,0.16-0.24,0.24c-0.72,0.66-2.65,0.34-2.35,1.26c0.33,1.01,1.95,0.2,3.01,0.15c0.01,0.26,0.02,0.52,0.03,0.77
		c-0.52,0.45-1.03,0.9-1.55,1.35c-0.35,0.3-0.85,0.63-0.48,1.09c0.2,0.25,0.8,0.33,1.18,0.26c1.67-0.3,3.41-0.32,4.81-1.57
		c1.98-1.77,4.14-1.66,6.28-0.23c1.91,1.28,2.45,2.69,1.77,5.21c-1.37,5.06,2.21,10.29,6.65,10.52c3.93,0.2,9.32-3.95,9.58-7.9
		c0.73-10.77,12.75-15.38,21.02-10.3c-0.14,0.17-0.29,0.34-0.43,0.51c-1.46-0.28-2.91-0.6-4.37-0.84c-0.47-0.08-0.99,0.17-1.01,0.7
		c-0.01,0.7,0.65,0.45,1,0.45c3.17,0.06,5.32,1.99,7.31,4.07c1.14,1.19,2.4,2.13,3.86,2.81c0.36,0.17,1.17,0.17,1.26-0.01
		c0.29-0.57-0.4-0.59-0.72-0.77c-1.75-0.97-2.91-2.57-4.26-3.96C90.78,71.21,91.01,70.96,91.24,70.71z M99.98,86.6
		c-0.73,0.5-1.91,1.28-0.98,1.96c1.04,0.76,1.06-0.95,1.6-1.49c0.01-0.27,0.03-0.53,0.04-0.8C100.42,86.38,100.2,86.49,99.98,86.6z
		 M47.77,80.66c2.06-2.8,1.51-7.03-1.09-8.27c-0.53-0.26-1.21-0.47-1.57,0.05c-0.32,0.46,0.35,0.65,0.67,0.91
		c2.29,1.87,2.66,4.13,1.32,6.72c-0.45,0.53-1.73,1.01-1.2,1.56C46.75,82.49,47.33,81.4,47.77,80.66z M140.88,83.94
		c0.1,0.32,0.13,0.87,0.3,0.92c2.5,0.69,5.25-1.02,6.32-3.86c0.93-2.47-0.45-5.91-2.77-6.91c-0.7-0.3-1.39-0.77-2.17-0.19
		c0.51,0.42,0.97,0.95,1.55,1.24c2.08,1.03,2.7,2.84,2.21,4.86c-0.41,1.65-0.84,3.73-3.44,3.33c-0.07-0.41-0.15-0.82-0.22-1.23
		c-1.88,0.52-3.57,0.34-5.3-0.77c-0.45-0.29-2.48-1.06-2.56,0.91c-0.06,1.41,1.13,1.85,2.37,1.85
		C138.41,84.08,139.65,83.99,140.88,83.94z M112.88,88.81c-1.32-0.05-3.24,2.52-3.52-0.41c-0.03-0.27-0.69,0.3-0.96,0.64
		c-0.5,0.63-1.01,1.24-1.48,1.89c-0.68,0.95-2.67,1.78-1.66,2.87c0.76,0.82,1.44-1.19,2.23-1.85c0.44-0.37,0.93-1.05,1.39-0.7
		c0.7,0.53,0.11,1.21-0.26,1.76c-0.32,0.47-0.72,0.91-0.95,1.42c-0.11,0.24,0.07,0.64,0.2,0.93c0.03,0.07,0.51,0.06,0.58-0.04
		C109.82,93.36,111.15,91.38,112.88,88.81z M134.07,72.74c0.07-4.25-3.05-8.12-7.14-8.79c-0.51-0.08-1.07,0.12-1.61,0.2
		c0.13,0.74,0.82,0.73,1.3,0.87c3.99,1.19,6.05,3.84,6.24,7.99c0.03,0.61-0.33,1.7,0.55,1.65C134.46,74.6,133.86,73.41,134.07,72.74
		z M131.02,74.89c-0.53-1.17-0.05-3.15-1.79-4.17c-0.52-0.3-0.82,0.2-0.65,0.71c0.56,1.74,1.16,3.46,1.85,5.15
		C130.45,76.64,131.09,75.86,131.02,74.89z M96.46,79.31c1.49-0.12,2.81-0.43,3.96-1.27c-1.22-0.98-2.29,0.15-3.43,0.22
		c-0.55,0.03-1.13-0.05-1.67-0.19c-0.75-0.19-1.97-0.9-2.12-0.19c-0.2,0.95,1.19,1.03,2.01,1.27
		C95.64,79.29,96.11,79.27,96.46,79.31z M126.74,76.43c0.46,0.79-1.18,2.16,0.43,2.45c0.87,0.16,0.8-1.2,0.82-1.94
		c0.02-0.89,0.08-2.3-0.89-2.31C125.78,74.61,126.84,75.78,126.74,76.43z M114.67,92.75c-0.14-0.34-0.28-0.71-0.3-0.7
		c-1.37,0.37-1.59,1.79-2.35,2.71c-0.42,0.52-1.23,1.18-0.54,2.04c0.09,0.12,0.72,0.04,0.83-0.13
		C113.14,95.36,113.92,94.01,114.67,92.75z M118.69,92.65c0.03-0.71-0.49-0.78-0.77-0.4c-0.94,1.26-1.77,2.6-2.61,3.93
		c-0.08,0.13,0.05,0.56,0.15,0.59c0.26,0.07,0.73,0.09,0.82-0.06C117.12,95.38,117.89,94,118.69,92.65z M123.38,95.79
		c1.14-0.59,1.38-1.59,1.66-2.55c0.1-0.35-0.09-0.81-0.38-0.66c-0.94,0.49-1.34,1.46-1.64,2.43
		C122.95,95.2,123.23,95.49,123.38,95.79z M45.69,78.56c-0.11-0.15-0.32-0.62-0.47-0.6c-0.91,0.12-1.16,1.01-1.47,1.65
		c-0.23,0.48,0.42,0.83,0.85,0.67C45.26,80.05,45.69,79.49,45.69,78.56z M128.92,92.22c-0.04-0.45,0.15-1.07-0.45-1.08
		c-0.74,0-0.72,0.74-0.81,1.26c-0.07,0.4-0.14,1.02,0.45,1.01C128.83,93.42,128.85,92.73,128.92,92.22z M120.38,94.61
		c1.07-0.4,1.43-1.26,1.8-2.07c0.09-0.19-0.17-0.53-0.27-0.81c-0.92,0.38-1.27,1.25-1.68,2.04
		C120.13,93.97,120.32,94.31,120.38,94.61z M26.17,71.27c-0.03-0.45-0.07-0.98-0.63-1c-0.87-0.03-0.72,0.72-0.71,1.22
		c0.01,0.47-0.2,1.29,0.69,1.16C26.21,72.54,26.13,71.82,26.17,71.27z M116.05,90.78c0.21-0.67-0.01-1.09-0.28-0.95
		c-0.44,0.22-0.82,0.66-1.07,1.1c-0.17,0.29-0.27,1.01,0.45,0.74C115.6,91.5,115.89,90.95,116.05,90.78z M60.52,90.98
		c0.16-0.76-0.16-1.06-0.42-0.94c-0.34,0.15-0.71,0.51-0.82,0.86c-0.09,0.3-0.07,1,0.62,0.71C60.24,91.47,60.46,91.04,60.52,90.98z
		 M119.83,94.88c-0.69,0.26-1.02,0.7-1.06,1.28c-0.03,0.39-0.06,0.99,0.64,0.78c0.64-0.19,0.68-0.8,0.71-1.34
		C120.12,95.36,119.93,95.12,119.83,94.88z M135.57,79.56c0.27-0.34,0.46-0.58,0.65-0.82c-0.2-0.08-0.42-0.25-0.6-0.22
		c-0.27,0.05-0.52,0.23-0.79,0.36C135.05,79.07,135.27,79.28,135.57,79.56z M77.02,75.58c0.68-0.06,1.04-0.29,0.91-0.81
		c-0.06-0.24-0.36-0.53-0.6-0.58c-0.39-0.09-0.96-0.04-0.94,0.49C76.41,75.02,76.83,75.33,77.02,75.58z M122.58,77.69
		c0.3-0.08,0.72-0.12,0.53-0.57c-0.09-0.22-0.43-0.35-0.69-0.45c-0.05-0.02-0.27,0.3-0.35,0.48
		C121.89,77.64,122.29,77.62,122.58,77.69z M132.12,89.69c-0.07,0.31-0.18,0.59-0.17,0.86c0,0.08,0.32,0.16,0.49,0.24
		c0.09-0.25,0.24-0.5,0.26-0.76C132.7,89.94,132.37,89.83,132.12,89.69z M112.58,79.73c0.22,0.07,0.52,0.27,0.77,0.22
		c0.15-0.03,0.22-0.45,0.32-0.7c-0.2-0.07-0.4-0.21-0.6-0.2C112.74,79.06,112.43,79.18,112.58,79.73z M35.12,62.64
		c-0.17,0.09-0.47,0.18-0.48,0.28c-0.01,0.19,0.16,0.38,0.25,0.57c0.23-0.16,0.47-0.33,0.7-0.49
		C35.44,62.88,35.29,62.76,35.12,62.64z M119.66,91.37c-0.16-0.23-0.27-0.5-0.37-0.5c-0.17,0-0.43,0.14-0.51,0.29
		c-0.18,0.37,0,0.62,0.41,0.56C119.36,91.69,119.51,91.48,119.66,91.37z M62.41,88.76c0.18-0.08,0.37-0.15,0.55-0.23
		c-0.06-0.08-0.14-0.25-0.19-0.24c-0.18,0.03-0.35,0.11-0.52,0.17C62.31,88.56,62.36,88.65,62.41,88.76z M41.17,77.89
		c-0.13,0.15-0.37,0.29-0.37,0.44c0,0.18,0.21,0.36,0.32,0.54c0.13-0.18,0.33-0.34,0.37-0.54C41.51,78.2,41.28,78.04,41.17,77.89z
		 M21.43,88.64c-0.2,0.11-0.51,0.19-0.55,0.34c-0.11,0.37,0.07,0.63,0.51,0.47c0.19-0.07,0.34-0.27,0.51-0.41
		C21.74,88.91,21.59,88.78,21.43,88.64z"/>
	<path class="st2" d="M283.23,62.44c0.26-2.38,2.12-0.95,3.21-1.34c0.46-0.16,1.14,0.37,1.39-0.36c0.03-0.09-0.65-0.49-1.04-0.63
		c-1.11-0.41-3.42,0.09-3.24-0.74c0.33-1.47,2.34-0.58,3.62-0.79c1.75-0.28,3.56,0.49,5.28-0.31c-1.77-1.06-3.84-0.87-5.55-0.49
		c-2.95,0.64-3.84-2.4-6.12-2.79c-0.51-0.09-0.11-0.73,0.41-0.78c0.78-0.08,1.56-0.1,2.53-0.15c-1.57-1.6-3.42-0.93-5.05-1.19
		c-0.6-0.1-1.28-0.24-1.35-0.84c-0.07-0.64,0.69-0.9,1.19-0.98c3.6-0.58,7.31-2.56,10.65,0.73c0.22,0.22,0.65,0.51,0.86,0.43
		c3.49-1.34,7.22-0.04,10.74-1.55c-2.95,0-5.9,0.1-8.85-0.03c-2.1-0.1-2.11-0.27-1.03-1.96c0.39-0.61,0.22-1-1.63-1.17
		c-2.88-0.26-2.05-1.35-0.73-2.55c4.27-3.87,9.37-5.78,15.07-5.52c3.71,0.17,7.5,0.61,10.58,3.13l0.06-0.06
		c-1.21-0.3-2.46-0.5-3.62-0.94c-1.35-0.51-2.69-0.5-4.06-0.33c-0.45,0.06-0.95,0.16-0.89,0.78c0.01,0.13,0.32,0.36,0.45,0.33
		c3.16-0.68,5.81,1.43,8.81,1.58l-0.05-0.03c0.67,2.43,3.76,2.87,4.39,5.33c-0.23,0.23-0.47,0.47-0.7,0.7
		c-1.77-1.64-3.58-3.22-5.94-3.97c-0.49-0.16-1.24-0.69-1.5-0.04c-0.27,0.65,0.62,0.83,1.11,1.02c3.04,1.17,5.16,3.26,6.62,6.15
		c0.51,1.02-0.39,3.31,1.31,2.89c1.16-0.28,0.16-2.41-0.2-3.7c-0.12-0.44-0.25-0.88-0.38-1.32c0.16-0.13,0.32-0.26,0.48-0.38
		c1.15,0.84,0.8,2.97,2.81,3.13c0.8,0.06,0.73,0.94,0.39,1.35c-2.57,3.16,1.07,2.97,2.1,3.27c2.55,0.73,5.12,1.36,7.34,2.82
		c1.56,1.03,3.13,2.57,2.86,4.42c-0.24,1.66-2.58,2.06-3.74,3.32c-0.16,0.18-0.74,0.24-0.9,0.1c-2.34-2.14-5.16-2.87-8.24-2.94
		c-0.2-0.01-0.57-0.45-0.55-0.66c0.04-0.58,0.56-0.63,1.02-0.6c2.18,0.12,4.36,0.29,6.54,0.39c0.31,0.01,0.94,0.45,0.95-0.32
		c0-0.18-0.49-0.5-0.77-0.53c-2.62-0.29-5.25-0.51-7.88-0.78c-0.43-0.04-0.99-0.11-0.99-0.69c0-0.11,0.73-0.3,1.12-0.31
		c1.65-0.03,3.31-0.01,4.99-0.24c-4.59-0.78-9.19-1.31-13.7-2.51c-2.7-0.72-5.13,0.77-7.47,2.03c-0.59,0.32-1.46,0.65-1.2,1.43
		c0.34,1.03,1.1,0.16,1.69,0.12c3.78-0.22,7.61-0.63,11.03,1.56c0.7,0.44,1.94,0.68,1.66,1.83c-0.12,0.52-0.93,0.95-1.51,1.26
		c-1.32,0.69-1.45-0.58-1.9-1.28c-0.18-0.29-0.25-0.66-0.47-0.91c-0.71-0.85-1.69-1.37-2.74-1.11c-1.63,0.41-0.22,0.78,0.13,1.04
		c0.36,0.26,0.92,0.29,1.22,0.59c0.38,0.38,0.59,0.93,0.87,1.41c-0.27,0.22-0.55,0.44-0.82,0.66c-0.59-0.22-1.64-0.91-1.7-0.5
		c-0.16,1.17,0.77,1.85,1.91,2.13c0.21,0.18,0.42,0.36,0.64,0.54c-0.21,0.65-0.8,1.49-0.57,1.9c0.59,1.09,1.37,0.02,2-0.2
		c5.34-1.92,10.52-2.76,15.03,1.89c0.32,0.33,0.85,0.62,0.93,1c0.94,4.75,4.88,2.79,7.64,3.43c0.26,0.06,0.83-0.16,0.84-0.29
		c0.05-0.71-0.58-0.51-0.97-0.58c-1.41-0.26-2.97,0.09-4.2-0.99c1.46-1.21,3.18-0.47,4.78-0.66c0.23-0.03,0.46,0.02,0.69,0.03
		c1.12,0.01,2.24,0.02,3.36,0.04c-0.87-1.53-2.41-0.88-3.67-1.11c-1.78-0.32-3.66,0.43-5.37-0.55c1.78-1.43,3.68,0.08,5.5-0.23
		c0.22-0.04,0.44-0.09,0.95-0.21c-2.17-1.7-4.57-0.92-6.73-1.29c-0.39-0.07-1.03-0.38-1.05-0.62c-0.08-0.91,0.74-0.59,1.19-0.61
		c1.03-0.05,2.28,0.4,3.05-0.04c2.68-1.52,4.86-1.31,8.48,1.19c1.3,0.9,2.08,1.87,2.15,3.62c0.3,7.46,5.94,7.62,10.31,4.84
		c0.75-0.48,1.38-1.21,1.96-1.91c5.59-6.73,14.91-6.79,20.57,0c1.21,1.45,2.63,3.3,0.91,5.22c-1.79,1.99-3.81,0.97-5.56-0.28
		c-0.92-0.66-1.67-1.57-2.46-2.41c-3.51-3.7-8.22-3.62-11.55,0.31c-6.39,7.55-14.07,10.75-23.89,7.58c-2.06-0.67-3.72-1.7-5.19-3.19
		c0.16-0.15,0.31-0.31,0.45-0.48c1.12-0.04,1.44-1.02,1.95-1.74c0.36-0.51,1.07-1.01,0.49-1.74c-0.05-0.06-0.88,0.49-1.35,0.77
		c-0.39,0.23-0.77,0.48-1.15,0.72c-0.1-0.15-0.21-0.29-0.33-0.43c0.16-0.49,0.33-0.98,0.49-1.48c0.22-0.24,0.44-0.49,0.65-0.73
		c0.58-0.44,1.51-0.99,0.57-1.65c-0.66-0.46-0.79,0.72-1.19,1.13c-0.19,0.22-0.38,0.44-0.58,0.65c-1.82,1.78-4.92,0.98-6.47,2.74
		c-4.04,4.6-8.97,3.04-13.81,2.58c-1.81-0.17-3.13-1.31-4.64-2.12c-2.4-1.28-1.66-2.11,0.2-2.98c0.18,0.16,0.36,0.32,0.54,0.48
		c0.11,1.05,0.52,1.62,1.47,0.68c0.89-0.88,1.7-1.84,2.49-2.82c0.26-0.32,0.58-0.97,0.45-1.15c-0.33-0.43-0.78,0.1-1.18,0.15
		c-1.72,0.2-3.71-1-5.05,1.04c-1.16-2.72-2.68-0.35-4.02-0.26c-0.57,0.04-1.24,0.39-1.01,1.07c0.26,0.76,0.91,0.5,1.35,0.08
		c0.56-0.55,1.2-0.64,1.9-0.49c0.31,0.07,0.76,0.21,0.85,0.43c0.08,0.22-0.14,0.68-0.37,0.87c-6.09,5.14-21.12,4.85-27.42-0.52
		c-0.16-0.13-0.2-0.4-0.3-0.61c0.11-0.1,0.22-0.2,0.33-0.29c1.6-1.03,1.67-1.1,0.51-2.2c-0.79-0.75-0.04-2.85-2.12-2.44
		c-0.25-0.62,0.86-1.49-0.31-1.87c-0.19-0.06-0.79,0.47-0.86,0.8c-0.23,1,0.61,0.92,1.24,1.02c0.49,0.89,0.15,1.98-0.47,2.23
		c-0.9,0.37-1.26-0.8-1.52-1.46c-0.81-2.07-1.49-4.19-2.22-6.3c1.37-0.18,2.2-0.99,2.63-2.25c0.03-0.09-0.27-0.41-0.35-0.39
		c-1.32,0.41-1.92,1.43-2.23,2.68c-1.25-0.54-2.28-1.25-2.13-2.84c1.94,0.28,2.35-1.3,3.02-2.53c0.07-0.13-0.1-0.38-0.16-0.58
		c-1.3,0.4-1.82,1.55-2.47,2.58c-0.12,0.19-0.24,0.38-0.36,0.57c-2.7-0.9-2.84-1.04-0.73-3.14c1.53-1.51,1.14-2.01-0.62-2.43
		c-2.26-1.93-2.22,1.02-3.29,1.59c-0.16,0.08-0.2,0.81-0.13,0.84c1.41,0.55,1.37-1.07,2.16-1.49c0.48-0.26,0.88-0.66,1.32-1
		c-0.68,2.99-1.76,3.88-4.27,3.54c-0.56-0.08-1.13-0.06-1.68-0.19c-0.99-0.23-2.67,0.83-2.87-0.59c-0.21-1.46,1.97-0.21,2.55-1.29
		c0.03,0.42-0.01,1.18,0.1,1.2c1.71,0.36,1.58-1.52,2.51-2.17c0.14-0.1,0.01-0.86-0.02-0.86c-0.92-0.06-1.24,0.81-1.85,1.25
		c-0.27,0.2-0.53,0.43-0.79,0.64c-0.1-0.71,0-1.61-1.2-1.29c-0.18-0.16-0.36-0.32-0.55-0.49c1.19-5.57,5.52-7.55,12.76-5.71
		c3.83,0.97,6.92,2.9,8.09,7c0.49,0.27,0.94,0.66,1.46,0.76c0.55,0.12,1.47,0.66,1.64-0.28c0.11-0.58-0.81-0.63-1.37-0.71
		C284.14,62.52,283.69,62.49,283.23,62.44z M343.87,85.99c-0.81-0.07-1.05,1.45-2.09,0.75c0.1-0.63,0.38-1.78,0.28-1.82
		c-1.2-0.42-1.32,0.82-1.88,1.41c-0.42,0.43-0.71,1.19-0.15,1.49c0.98,0.51,0.97-1.08,1.8-1.12c0.8,0.41-0.28,1.77,0.73,1.83
		c1.21,0.07,1.02-1.44,1.71-2.05c0.26-0.26,0.93-0.43,0.57-0.86C344.55,85.25,344.07,85.52,343.87,85.99z M348.73,86.71
		c0.6,0.14,0.58,0.56,0.44,1.02c-0.19,0.64-0.02,1.2,0.61,1.36c0.41,0.1,0.88-0.23,0.93-0.76c0.07-0.69,0.15-1.45-0.95-1.24
		c-0.44,0.08-0.86,0.26-1.07-0.33c-1.72-1.65-1.92,0.38-2.59,1.11c-0.42,0.46-0.33,1.25,0.32,1.34c1.36,0.18,0.83-1.38,1.51-1.89
		C348.2,87.1,348.46,86.91,348.73,86.71z M324.19,72.38c-0.15,0.05-0.73,0.14-0.74,0.27c-0.03,0.77,0.63,0.76,1.17,0.9
		c1.56,0.39,3.15,0.77,3.3,2.83c-3.49,0.18-0.45,2-0.71,2.99c-0.14,0.53,0.84,1.2,0.86,1.01c0.18-1.74,2.41,0.01,2.56-1.63
		C330.85,76.26,326.94,72.24,324.19,72.38z M318.02,55.48c-0.56-1.76-1.2-3.49-2.88-4.51c-0.54-0.33-1.73-0.66-1.81-0.53
		c-0.66,1.18,0.68,1.04,1.15,1.44c1.22,1.01,1.81,2.3,2.06,3.81c0.07,0.43,0.31,0.88,0.9,0.78C317.98,56.37,318.15,56,318.02,55.48z
		 M312.15,84.53c0.06,0.63,0.6,0.8,0.98,0.64c1.7-0.73,1.6-2.86,2.93-3.93c0.32-0.26,0.04-0.6-0.34-0.68
		C315.24,80.45,312.09,83.97,312.15,84.53z M291.94,70.45c-0.71,0.25-1.24,0.67-1.11,1.47c0.12,0.73,0.61,1.27,1.37,1.23
		c0.83-0.05,1.06-0.74,1.05-1.46C293.24,70.86,292.65,70.58,291.94,70.45z M339.76,84.09c-0.09-0.54-0.22-0.91-0.64-0.63
		c-0.94,0.64-1.83,1.37-1.97,2.6c-0.02,0.15,0.44,0.36,0.67,0.55C338.5,85.73,339.17,84.86,339.76,84.09z M312.86,54.36
		c-0.38,0.13-0.63,0.3-0.28,0.65c0.53,0.52,0.51,1.52,1.43,1.67c0.08,0.01,0.39-0.54,0.33-0.76
		C314.14,55.14,313.74,54.47,312.86,54.36z M319.9,86.03c0.78-0.08,0.6-0.95,0.84-1.49c0.15-0.35,0.32-1-0.4-0.89
		c-0.71,0.11-1.04,0.78-1.21,1.44C319.01,85.55,319.13,85.96,319.9,86.03z M293,53.48c-0.32,0.15-1.12-0.22-0.83,0.52
		c0.13,0.33,0.97,0.45,1.51,0.54c0.22,0.04,0.71-0.3,0.7-0.4C294.23,53.36,293.51,53.63,293,53.48z M296.5,81.93
		c0.3-0.45-0.06-0.6-0.36-0.64c-0.69-0.09-1.05,0.37-1.16,0.96c-0.07,0.37-0.2,1,0.54,0.92C296.22,83.09,296.23,82.39,296.5,81.93z
		 M293.3,55.6c-0.31,0.17-1.09-0.18-0.84,0.51c0.12,0.35,0.88,0.52,1.38,0.65c0.2,0.05,0.7-0.27,0.7-0.4
		C294.51,55.57,293.79,55.76,293.3,55.6z M285.92,81.96c-0.14-0.18-0.32-0.4-0.49-0.61c-0.28,0.29-0.62,0.54-0.79,0.88
		c-0.05,0.1,0.3,0.58,0.53,0.64C285.8,83.02,285.75,82.43,285.92,81.96z M310.73,55.92c-0.42-0.18-0.68-0.35-0.96-0.39
		c-0.09-0.01-0.35,0.4-0.31,0.48c0.15,0.24,0.41,0.42,0.62,0.62C310.27,56.43,310.45,56.23,310.73,55.92z M299.61,83.43
		c0.36-0.57,0.69-0.9,0.78-1.29c0.08-0.36,0.12-1.07-0.62-0.74c-0.33,0.15-0.58,0.64-0.71,1.03
		C299.01,82.62,299.32,82.92,299.61,83.43z M316.51,83.75c-0.58,0.19-1.02,0.55-1,1.19c0.01,0.39,0.06,1.05,0.71,0.79
		c0.33-0.13,0.62-0.6,0.75-0.98C317.1,84.38,317.12,83.87,316.51,83.75z M283.77,80.9c-0.12-0.48-0.31-0.82-0.71-0.64
		c-0.26,0.12-0.6,0.45-0.6,0.7c-0.01,0.49,0.33,0.88,0.87,0.66C283.56,81.52,283.65,81.1,283.77,80.9z M276.03,70.61
		c-0.22,0.32-0.58,0.85-0.95,1.38c0.29,0.08,0.73,0.32,0.83,0.22c0.37-0.37,0.68-0.82,0.9-1.3
		C276.89,70.72,276.79,70.21,276.03,70.61z M291.32,83.24c-0.06-0.51-0.27-0.69-0.63-0.59c-0.17,0.05-0.31,0.22-0.46,0.33
		c0.17,0.22,0.3,0.56,0.51,0.63C290.89,83.66,291.16,83.35,291.32,83.24z M323.23,84.12c-0.14,0.27-0.3,0.52-0.37,0.8
		c-0.01,0.04,0.47,0.32,0.53,0.27c0.2-0.17,0.32-0.45,0.46-0.69C323.68,84.4,323.51,84.29,323.23,84.12z M338.74,81.26
		c-0.01-0.57-0.3-0.77-0.61-0.62c-0.37,0.18-0.72,0.5-0.98,0.83c-0.26,0.33,0.02,0.75,0.31,0.65
		C337.95,81.95,338.36,81.53,338.74,81.26z M325.13,79.89c0.45-0.15,0.85-0.25,0.6-0.7c-0.15-0.26-0.45-0.55-0.72-0.59
		c-0.34-0.05-0.65,0.23-0.45,0.64C324.7,79.5,324.96,79.7,325.13,79.89z M298.14,57.77c-0.37,0.05-0.58,0.25-0.43,0.61
		c0.06,0.14,0.41,0.32,0.46,0.28c0.22-0.17,0.37-0.42,0.55-0.64C298.52,57.93,298.33,57.84,298.14,57.77z M353.11,86.51
		c-0.32,0.37-0.56,0.56-0.64,0.8c-0.04,0.12,0.23,0.51,0.3,0.49c0.26-0.06,0.61-0.18,0.71-0.38
		C353.55,87.27,353.3,86.95,353.11,86.51z M310.33,70.27c0.13,0.16,0.22,0.4,0.36,0.43c0.19,0.04,0.55-0.05,0.59-0.16
		c0.11-0.34-0.03-0.66-0.45-0.64C310.67,69.89,310.51,70.13,310.33,70.27z M299.3,70.9c0.18,0.1,0.44,0.23,0.7,0.37
		c0.07-0.28,0.19-0.56,0.2-0.83c0-0.08-0.33-0.25-0.5-0.23C299.39,70.23,299.09,70.36,299.3,70.9z M322.72,79.91
		c-0.43,0-0.73-0.06-1.01,0.01c-0.33,0.08-0.34,0.31-0.02,0.45c0.19,0.08,0.42,0.13,0.61,0.09
		C322.43,80.43,322.51,80.21,322.72,79.91z M318.17,83.01c-0.16-0.18-0.35-0.46-0.4-0.44c-0.26,0.12-0.49,0.31-0.72,0.48
		c0.11,0.14,0.28,0.43,0.32,0.41C317.65,83.35,317.9,83.17,318.17,83.01z"/>
	<path class="st2" d="M256.82,67.39c-0.91,2.43-3.2,3.09-5.24,4.05c-0.38,0.18-0.99,0.28-1.27,0.09c-0.26-0.17-0.4-0.87-0.27-1.2
		c0.4-0.99,0.78-2.52,1.5-2.73c1.47-0.44,3.16-0.16,4.75-0.18c0,0,0.26-0.04,0.26-0.04L256.82,67.39z"/>
	<path class="st1" d="M256.82,67.39l-0.26-0.01c0,0-0.26,0.04-0.26,0.04c-0.04-0.24-0.08-0.48-0.12-0.72
		c0.01-0.43,0.01-0.85,0.01-1.28c-0.9-1.75-2.64-0.88-3.98-1.22c-1.27-0.32-2.64-0.27-3.92-0.99c2.24,0,4.49-0.04,6.73,0.02
		c1.21,0.03,2.89-0.47,3.46,0.77C259.09,65.34,257.71,66.4,256.82,67.39z"/>
	<path class="st2" d="M256.19,65.42c0,0.43-0.01,0.85-0.01,1.28c-1.94-0.11-3.88-0.18-5.82-0.35c-0.37-0.03-1-0.42-1.01-0.66
		c-0.02-0.6,0.63-0.46,1.01-0.46C252.3,65.27,254.24,65.35,256.19,65.42z"/>
	<path class="st2" d="M14.45,91.59c0,0.42,0,0.84,0,1.26c-1.14,0.13-2.47,0.12-2.9-0.99c-0.38-0.99,0.68-1.75,1.51-2.33
		c0.21,0.22,0.43,0.44,0.64,0.66C13.75,90.76,13.61,91.43,14.45,91.59z"/>
	<path class="st2" d="M116.87,47.68c-0.88-0.2-1.83-0.25-2.62-0.63c-0.71-0.35-2.12,0.19-2.03-0.79c0.06-0.65,1.5-0.69,2.41-0.55
		c1.1,0.18,2.3,0.17,2.82,1.47C117.26,47.35,117.06,47.51,116.87,47.68z"/>
	<path class="st2" d="M235.49,46.93c0,0.32-0.01,0.63-0.01,0.95c-1.28-0.22-2.72,0.36-3.81-0.78
		C232.91,46.34,234.21,46.88,235.49,46.93z"/>
	<path class="st2" d="M102.26,91.68c-0.02-0.27-0.05-0.53-0.07-0.8c0.68-0.92,1.35-1.85,2.03-2.78c0.21,0.23,0.43,0.46,0.64,0.69
		c0.03,0.25,0.06,0.49,0.09,0.74c0,0,0.04-0.05,0.04-0.05C104.08,90.21,103.17,90.94,102.26,91.68z"/>
	<path class="st2" d="M208.57,60.49c0.83,0.16,2.4-0.6,2.2,0.86c-0.14,1.05-1.64,0.45-2.56,0.32
		C208.48,61.32,208.83,61,208.57,60.49z"/>
	<path class="st1" d="M209.21,39.79c-0.79,0.05-1.23-0.22-1.25-0.67c-0.04-1.4,1.06-0.75,1.7-0.81c0.38-0.04,0.8,0.21,1.19,0.33
		C210.44,39.39,209.68,39.59,209.21,39.79z"/>
	<path class="st2" d="M333.85,86.45c-1.93-1.02-1.6-1.97,0.07-2.89c0.11,0.13,0.22,0.28,0.33,0.43c0.02,0.66,0.04,1.33,0.05,1.99
		C334.16,86.13,334.01,86.29,333.85,86.45z"/>
	<path class="st2" d="M5.44,86.23c0,0.41,0,0.81,0,1.22c-0.45-0.5-1.02-0.95-1.3-1.53c-0.28-0.59,0.13-1.23,0.78-1.2
		C6.15,84.77,5.16,85.75,5.44,86.23z"/>
	<path class="st2" d="M278.85,80.64c-0.88-0.51-1.75-1.08-1.38-2.28c0.06-0.21,0.83-0.41,1.16-0.29c1.22,0.45,0.16,1.56,0.56,2.27
		C279.06,80.45,278.95,80.54,278.85,80.64z"/>
	<path class="st2" d="M314.17,42.55c1,0.02,2.03-0.01,2.07,1.41l0.05-0.08c-0.47,0-0.95,0-1.42,0c0,0,0.05,0.03,0.05,0.03
		c-0.23-0.47-0.46-0.95-0.69-1.42L314.17,42.55z"/>
	<path class="st2" d="M314.7,67.74c0.49,0.94,1.62,1.88,0.03,2.84c-0.21-0.18-0.42-0.36-0.63-0.54c-0.07-0.54-0.14-1.09-0.21-1.63
		C314.16,68.18,314.43,67.96,314.7,67.74z"/>
	<path class="st1" d="M150.1,86.28c0.76-0.86,1.51-1.82,2.47-0.2c0,0,0.03-0.06,0.03-0.06c-0.9-0.26-1.15,0.79-1.85,0.92
		C150.54,86.72,150.32,86.5,150.1,86.28z"/>
	<path class="st1" d="M89.53,69.66c0.57,0.35,1.14,0.7,1.71,1.05c-0.23,0.25-0.47,0.5-0.7,0.75c-0.51-0.43-1.01-0.85-1.52-1.28
		C89.19,70.01,89.36,69.84,89.53,69.66z"/>
	<path class="st1" d="M201.61,64.4c-0.62,0.21-1.03,0.42-1.45,0.47c-0.41,0.05-0.55-0.33-0.35-0.6c0.16-0.21,0.55-0.34,0.83-0.33
		C200.9,63.94,201.15,64.17,201.61,64.4z"/>
	<path class="st1" d="M87.9,68.49c0.54,0.39,1.09,0.78,1.63,1.17c-0.17,0.17-0.34,0.35-0.51,0.52c-0.52-0.39-1.03-0.79-1.55-1.18
		C87.62,68.83,87.76,68.66,87.9,68.49z"/>
	<path class="st2" d="M11.42,88.08c0.37,0.04,0.73,0.08,1.1,0.12c-0.51,0.43-1.01,0.85-1.52,1.28c0,0,0.05,0.05,0.05,0.05
		C10.66,88.91,10.98,88.48,11.42,88.08z"/>
	<path class="st2" d="M209.2,32.19c0.73,0.17,1,0.55,0.53,1.23C209.55,33.02,209.38,32.61,209.2,32.19z"/>
	<path class="st2" d="M38.64,70.08c-0.01-0.26-0.02-0.52-0.03-0.77c0.21-0.21,0.43-0.41,0.64-0.62c0.18,0.15,0.36,0.31,0.54,0.46
		C39.4,69.46,39.02,69.77,38.64,70.08z"/>
	<path class="st2" d="M319.26,49.21c0.26,0.45,0.52,0.9,0.78,1.35c-0.16,0.13-0.32,0.25-0.48,0.38c-0.34-0.34-0.68-0.69-1.01-1.03
		C318.79,49.68,319.03,49.45,319.26,49.21z"/>
	<path class="st2" d="M309.15,81.7c0.21-0.53,0.26-1.59,1.1-1.02c0.73,0.51-0.2,1.04-0.56,1.49
		C309.51,82.02,309.33,81.86,309.15,81.7z"/>
	<path class="st1" d="M154.22,85.46c0.33-0.31,0.66-0.62,0.99-0.94c0.19,0.16,0.39,0.33,0.58,0.49c-0.3,0.4-0.61,0.8-0.91,1.2
		C154.66,85.96,154.44,85.71,154.22,85.46z"/>
	<path class="st2" d="M10.45,90.2c-0.27-0.21-0.55-0.42-0.82-0.63c0.47-0.02,0.94-0.03,1.41-0.05c0,0-0.05-0.05-0.05-0.05
		C10.81,89.72,10.63,89.96,10.45,90.2z"/>
	<path class="st2" d="M316.24,43.96c0.15-0.03,0.31-0.05,0.46-0.08c-0.02,0.13-0.04,0.26-0.05,0.4c-0.12-0.13-0.24-0.26-0.36-0.39
		C316.29,43.89,316.24,43.96,316.24,43.96z"/>
	<path class="st2" d="M40.42,68.42c-0.21,0.24-0.42,0.48-0.64,0.73c-0.18-0.15-0.36-0.31-0.54-0.46c0.24-0.22,0.48-0.45,0.72-0.67
		C40.1,68.17,40.25,68.31,40.42,68.42z"/>
	<path class="st2" d="M39.96,68.02c0.2-0.12,0.41-0.23,0.61-0.35c-0.05,0.25-0.11,0.5-0.16,0.75C40.25,68.31,40.1,68.17,39.96,68.02
		z"/>
	<path class="st2" d="M153.93,83.26c-0.05,0.17-0.1,0.34-0.15,0.51c-0.08-0.09-0.17-0.18-0.25-0.27c0.16-0.06,0.31-0.12,0.46-0.18
		C153.98,83.32,153.93,83.26,153.93,83.26z"/>
	<path class="st2" d="M262.56,62.01c-0.14,0.25-0.23,0.69-0.61,0.4c-0.13-0.1,0.04-0.58,0.06-0.89
		C262.19,61.69,262.37,61.85,262.56,62.01z"/>
	<path class="st1" d="M38.86,66.9c-0.22,0.25-0.45,0.51-0.67,0.76c-0.23-0.27-0.47-0.54-0.7-0.81c0.23-0.18,0.45-0.37,0.68-0.55
		C38.4,66.5,38.63,66.7,38.86,66.9z"/>
	<path class="st1" d="M226.8,83.58c-0.32,0.28-0.6,0.76-1.04,0.19c-0.02-0.03,0.4-0.4,0.62-0.61
		C226.52,83.3,226.66,83.44,226.8,83.58z"/>
	<path class="st1" d="M155.21,84.52c0.17-0.29,0.35-0.58,0.52-0.86c0.21,0.21,0.43,0.42,0.65,0.63c-0.2,0.24-0.39,0.49-0.59,0.73
		C155.59,84.85,155.4,84.69,155.21,84.52z"/>
	<path class="st0" d="M233.6,34.03c0,0.57,0.06,1.15-0.02,1.71c-0.04,0.3-0.28,0.77-0.48,0.8c-0.61,0.08-0.6-0.51-0.65-0.9
		c-1.27-9.29-6.93-14.74-15.42-17.77c-0.54-0.19-1.74-0.04-1.48-0.91c0.22-0.72,1.21-0.09,1.82,0.02
		C225.06,18.38,233.4,27.16,233.6,34.03z"/>
	<path class="st0" d="M244.57,71.85c0.14,2.2-1.25,3.92-1.73,5.91c-0.11,0.47-0.57,0.8-1.03,0.53c-0.48-0.28-0.21-0.79-0.12-1.23
		c1.95-9.83,0.78-12.47-7.75-17.37c-0.25-0.15-0.78-0.06-0.57-0.55c0.11-0.24,0.49-0.45,0.78-0.51c0.8-0.16,1.6-0.07,2.31,0.4
		C241.07,62.11,244.09,66.18,244.57,71.85z"/>
	<path class="st0" d="M181.2,7.33c6.19-0.21,14.86,6.86,15.69,12.81c0.06,0.44,0.24,1-0.26,1.18c-0.62,0.23-0.73-0.49-0.85-0.82
		c-2.59-7.36-7.88-11.22-15.54-12.04c-0.26-0.03-0.72-0.26-0.71-0.28C179.79,7.33,180.52,7.38,181.2,7.33z"/>
	<path class="st0" d="M182.89,62.02c10.45-0.04,14.59,6.53,15.95,14.27c0.09,0.51,0.29,1.25-0.52,1.35
		c-0.84,0.11-0.69-0.67-0.82-1.19C195.07,67.08,193.33,65.28,182.89,62.02z"/>
	<path class="st0" d="M210.52,67.99c2.95,2.55,6.43,4.76,6.01,9.46c-0.06,0.71,0.6,1.83-0.67,1.84c-0.77,0.01-0.64-1.02-0.7-1.7
		c-0.45-4.94-2.26-7.24-6.29-8.06c-0.53-0.11-1.05-0.23-1.57-0.35c0.27-0.8,0.98-0.84,1.65-0.94c0.55-0.08,1.1-0.13,1.65-0.19
		C210.59,68.05,210.52,67.99,210.52,67.99z"/>
	<path class="st0" d="M161.54,92.25c-1.16-0.08-2.77,0.29-1.83-1.86c0.18-0.28,0.37-0.55,0.55-0.83c0.3-0.4,0.6-0.79,0.91-1.19
		c0.41-0.43,1.29-0.89,0.67-1.48c-0.69-0.66-0.95,0.41-1.38,0.76c-0.26,0.49-0.52,0.97-0.78,1.46c-0.18,0.22-0.36,0.44-0.53,0.67
		c-0.61,0.22-1.27,0.77-1.75-0.12c-0.17-0.31,3.97-5.2,4.32-5.11c0.23,0.06,0.58,0.56,0.56,0.58c-1.61,1.72,3.9,0.83,1.09,2.96
		c-1.38,1.05-1.97,2.47-1.86,4.19L161.54,92.25z"/>
	<path class="st0" d="M151.75,9.08c0.46-0.02,0.92-0.08,1.37-0.05c1.48,0.09,2.93,0.3,4.1,1.36c-1.22,0.7-2.32-0.22-3.49-0.28
		c-3.89-0.21-7.49,0.63-10.84,2.6c-0.39,0.23-0.77,1.16-1.29,0.42c-0.35-0.5,0.26-1.04,0.76-1.33
		C145.26,10.1,148.28,8.78,151.75,9.08z"/>
	<path class="st0" d="M195.74,36.64c2.7,0.09,7.52,4.69,7.8,7.45c0.04,0.41,0.27,0.97-0.38,1.07c-0.59,0.09-0.71-0.47-0.83-0.91
		c-0.96-3.61-3.72-5.31-6.9-6.6c-0.27-0.11-0.74-0.32-0.73-0.45C194.76,36.59,195.28,36.63,195.74,36.64z"/>
	<path class="st0" d="M188.4,14.07c1.69,0.32,2.7,1.61,3.78,2.78c1.2,1.29,1.8,2.91,2.41,4.51c0.13,0.34,0.02,1.05-0.22,1.2
		c-0.42,0.25-0.78-0.09-0.92-0.62c-0.78-3.03-2.67-5.23-5.23-6.94c-0.21-0.14-0.31-0.46-0.46-0.7
		C187.95,14.23,188.16,14.16,188.4,14.07z"/>
	<path class="st0" d="M196.17,78.18c-0.07,0.3-0.15,1.23-0.34,1.26c-0.75,0.09-0.8-0.67-0.84-1.19c-0.18-2.57-1.48-4.5-3.38-6.13
		c-0.3-0.26-0.46-0.67-0.69-1.01c0.56-0.35,1.1-0.24,1.58,0.13C194.72,72.93,195.99,75.13,196.17,78.18z"/>
	<path class="st0" d="M240.56,72.56c-0.1,0.82-0.01,1.58-0.29,2.17c-0.5,1.02-0.28,3.09-1.78,2.76c-1.02-0.23,0.34-1.7,0.46-2.65
		c0.16-1.37,0.44-2.71-0.11-4.06c-0.25-0.6-0.98-1.49-0.3-1.81c0.95-0.46,1.29,0.7,1.56,1.38C240.39,71.07,240.43,71.9,240.56,72.56
		z"/>
	<path class="st0" d="M250.76,48.13c1.64,0.33,5.31,6.81,4.68,8.31c-0.07,0.17-0.26,0.4-0.41,0.42c-0.55,0.06-0.83-0.34-0.92-0.8
		c-0.54-2.76-1.82-5.11-3.84-7.06c-0.18-0.18-0.56-0.48-0.14-0.79C250.28,48.1,250.55,48.15,250.76,48.13z"/>
	<path class="st0" d="M229.32,32.42c-0.11,0.68,0.2,1.62-0.76,1.61c-0.73-0.01-0.54-0.81-0.55-1.35c-0.03-2.18-0.95-3.92-2.52-5.39
		c-0.37-0.35-1.16-0.78-0.71-1.28c0.57-0.62,1.23,0,1.74,0.45C228.33,28.07,229.03,30.19,229.32,32.42z"/>
	<path class="st0" d="M155.79,85.02c0.2-0.24,0.39-0.49,0.59-0.73c0.77-0.41,1.52-1.85,2.16-1.26c0.92,0.84-0.55,1.46-1.02,2.14
		c-0.79,1.13-1.66,2.2-2.51,3.29c-0.4,0.51-0.8,1.46-1.53,0.88c-0.76-0.61,0.21-1.13,0.53-1.65c0.3-0.48,0.58-0.97,0.87-1.46
		C155.18,85.82,155.48,85.42,155.79,85.02z"/>
	<path class="st0" d="M161.49,92.28c2.35,0.27,2.21-2.34,3.63-3.14c0.42-0.24,0.68-1.05,1.31-0.49c0.13,0.11-0.13,0.81-0.36,1.13
		c-0.66,0.92-1.4,1.77-2.09,2.66c-0.47,0.61-0.5,1.76-1.39,1.76c-1.25,0.01,0.17-1.74-1.05-1.96
		C161.54,92.25,161.49,92.28,161.49,92.28z"/>
	<path class="st0" d="M222.82,53.92c-0.15,0.37-0.19,0.82-0.39,0.91c-0.48,0.23-0.82-0.05-1.01-0.55c-0.39-1.06-0.82-2.1-1.19-3.16
		c-0.26-0.75-2.04-1.03-1.01-1.98c0.52-0.48,1.64,0.6,2.09,1.38C221.92,51.59,222.32,52.78,222.82,53.92z"/>
	<path class="st0" d="M173.59,50.07c0.88,0.41,1.89,0.71,2.69,1.28c0.87,0.62,2.33,1.76,1.58,2.55c-0.9,0.93-1.4-0.85-2.07-1.45
		c-0.71-0.63-1.51-0.94-2.45-1.04c-0.56-0.06-1.55,0.26-1.37-0.83C172,50.34,172.93,50.26,173.59,50.07z"/>
	<path class="st0" d="M192.58,81.02c-0.12,1.01,0.17,2.14-0.98,2.07c-1.04-0.06-0.37-1.05-0.43-1.64c-0.02-0.22-0.07-0.46-0.03-0.67
		c0.19-0.95-1.86-2.11-0.53-2.44C192.4,77.91,191.96,80.21,192.58,81.02z"/>
	<path class="st0" d="M171.94,92.9c-1.36,0.42-1.25,2.42-2.79,2.62c-0.13,0.02-0.45-0.3-0.43-0.38c0.51-1.67,1.66-3.02,2.95-3.96
		c1.58-1.15,0.24,0.99,0.91,1.1l0.06-0.05c-0.73-0.24-0.72,0.27-0.75,0.74L171.94,92.9z"/>
	<path class="st0" d="M155.29,14.21c-0.51-0.08-1.03-0.15-1.55-0.23c0.67-1.2,1.91-1.01,2.97-1.11c0.84-0.08,1.75-0.4,2.56,0.2
		C158.2,14.33,156.59,13.59,155.29,14.21z"/>
	<path class="st0" d="M169.05,91.22c-0.87,1.1-1.11,2.62-2.51,3.1c-0.56,0.2-0.85-0.43-0.55-0.8c0.82-1.02,1.21-2.43,2.57-2.95
		C168.63,90.55,168.88,91,169.05,91.22z"/>
	<path class="st0" d="M208.54,87.46c0.44-0.41,0.23-0.87,0.09-1.32c0.66-0.61,1.22-1.27,1.31-2.21L209.88,84
		c2.23-1.87,1.44,0.83,2.07,1.37l0.04-0.04c-1.95-0.62-1.72,2.42-3.5,2.08C208.5,87.41,208.54,87.46,208.54,87.46z"/>
	<path class="st0" d="M237.04,74.97c-0.33,0.95,0.37,2.31-1.01,2.59c-0.74,0.15-0.69-0.78-0.52-1.23c0.38-0.97-0.6-2.53,0.87-2.89
		C237.14,73.26,236.78,74.48,237.04,74.97z"/>
	<path class="st0" d="M220.15,55.24c-0.02,0.43,0.14,1.19-0.41,1.02c-1.37-0.43-0.94-2.07-1.68-3c-0.27-0.35-0.06-1.02,0.53-0.78
		C219.79,52.96,219.72,54.28,220.15,55.24z"/>
	<path class="st0" d="M214.18,77.76c-0.26,0.52,0.01,1.39-0.64,1.09c-1.39-0.62-0.56-2.61-1.85-3.4c0.21-0.15,0.45-0.47,0.64-0.44
		C214.08,75.27,213.55,76.92,214.18,77.76z"/>
	<path class="st0" d="M183.58,94.9c-0.59-0.21-0.7-0.68-0.47-1.06c0.55-0.91,0.87-2.09,2.19-2.28c0.04,0.28,0.21,0.68,0.08,0.83
		C184.72,93.18,185.01,94.7,183.58,94.9z"/>
	<path class="st0" d="M172.58,92.28c0.87,0.49,1.27-1.26,1.88-0.58c0.65,0.72-0.39,1.37-0.72,2.01c-0.28,0.54-0.52,1.47-1.33,1.28
		c-1.35-0.32,0.43-1.55-0.48-2.09c0,0-0.04,0.07-0.04,0.07c1,0.52,0.86-0.13,0.75-0.74L172.58,92.28z"/>
	<path class="st0" d="M180.53,95.17c-0.57-0.13-0.95-0.43-0.7-0.95c0.37-0.78,0.48-1.81,1.57-2.02c0.06-0.01,0.39,0.55,0.31,0.74
		C181.41,93.74,181.62,94.84,180.53,95.17z"/>
	<path class="st0" d="M199.23,42.44c1.01,0.14,1.17,1.03,1.38,1.74c0.11,0.38-0.51,1.04-0.74,0.82c-0.53-0.52-0.86-1.28-1.18-1.99
		C198.48,42.56,198.86,42.45,199.23,42.44z"/>
	<path class="st0" d="M143.48,44.48c-0.22-0.22-0.41-0.48-0.67-0.64c-0.63-0.4-1.73-0.12-1.95-1c-0.11-0.44,0.69-0.39,1.05-0.31
		c1.11,0.26,2.5,0.13,2.77,1.74c-0.42,0.05-0.84,0.09-1.26,0.14L143.48,44.48z"/>
	<path class="st0" d="M211.96,85.37c0.2,0.01,0.44,0.09,0.61,0.02c0.66-0.31,0.93-1.29,1.87-1.09c0.05,0.01,0.08,0.74-0.06,0.83
		c-0.87,0.53-0.5,2.24-1.73,2.16c-1.12-0.08-0.1-1.38-0.65-1.95C211.99,85.33,211.96,85.37,211.96,85.37z"/>
	<path class="st0" d="M229.92,81.94c0.89,0.03,1.83-1.73,2.68,0.06l0.05-0.06c-0.9,0.39-1.85,2.57-2.67-0.07
		C229.99,81.86,229.92,81.94,229.92,81.94z"/>
	<path class="st0" d="M188.85,20.01c0.36,0.27,0.81,0.48,1.08,0.82c0.77,0.97,2.03,2.74,1.17,3.17c-1.42,0.71-1.09-1.65-1.96-2.35
		c-0.33-0.27-0.5-0.75-0.74-1.13C188.56,20.37,188.71,20.2,188.85,20.01z"/>
	<path class="st0" d="M150.75,86.94c0.71-0.13,0.95-1.18,1.85-0.92c0.21,1.36-0.42,2.32-1.72,2.36
		C150.27,88.39,150.66,87.46,150.75,86.94z"/>
	<path class="st0" d="M149.79,32.25c0-0.05,0.4-0.28,0.84-0.3c0.65-0.03,1.02,0.35,0.86,1.01c-0.11,0.46-0.51,0.68-1,0.62
		C150,33.53,149.7,33.28,149.79,32.25z"/>
	<path class="st0" d="M134.31,54.57c-0.53-0.01-1.3,0.18-1.37-0.49c-0.09-0.84,0.78-0.56,1.21-0.54c0.55,0.02,1.53-0.4,1.54,0.56
		C135.7,54.72,134.81,54.46,134.31,54.57z"/>
	<path class="st0" d="M177.37,92.41c0.64-0.38,0.75,0.15,0.67,0.35c-0.36,0.92-0.47,2.01-1.39,2.61c-0.48,0.31-0.6-0.23-0.61-0.49
		C175.99,93.75,176.74,93.04,177.37,92.41z"/>
	<path class="st0" d="M189.18,91.48c-0.24,0.71-0.31,1.52-1.06,1.93c-0.04,0.02-0.51-0.43-0.49-0.65c0.06-0.79,0.29-1.59,1.1-1.91
		C189.19,90.68,189.15,91.17,189.18,91.48z"/>
	<path class="st0" d="M143.43,44.42c0.01,1.03,1.92,0.88,1.42,1.93c-0.33,0.69-1.27-0.04-1.81-0.32c-2.23-1.15,1.02-0.81,0.45-1.55
		C143.48,44.48,143.43,44.42,143.43,44.42z"/>
	<path class="st0" d="M249.66,56.38c-0.08,0.9-0.69,0.72-0.99,0.65c-0.55-0.13-1.43,0.4-1.56-0.63c-0.02-0.15,0.5-0.56,0.72-0.53
		C248.46,55.95,249.06,56.2,249.66,56.38z"/>
	<path class="st0" d="M188.01,25c0.25,0.79-0.22,0.93-0.45,0.83c-0.37-0.16-0.75-0.49-0.93-0.85c-0.17-0.35,0.14-0.7,0.54-0.56
		C187.55,24.56,187.86,24.89,188.01,25z"/>
	<path class="st0" d="M158.58,17.21c0.91-0.12,1.33-0.23,1.75-0.22c0.61,0.01,1.26,0.25,1.36,0.84c0.14,0.8-0.5,0.45-0.84,0.33
		C160.23,17.94,159.64,17.66,158.58,17.21z"/>
	<path class="st0" d="M164.3,22.46c-0.2,0.18-0.39,0.5-0.61,0.52c-0.65,0.06-0.94-0.45-1.08-0.97c-0.04-0.15,0.32-0.59,0.5-0.59
		C163.69,21.41,164.04,21.82,164.3,22.46z"/>
	<path class="st0" d="M232.6,82c0.61,0.28,1-1.25,1.63-0.24c0.16,0.26,0.02,1.04-0.21,1.17c-0.99,0.53-0.79-0.8-1.37-0.98
		C232.66,81.94,232.6,82,232.6,82z"/>
	<path class="st0" d="M116.92,51.95c-0.55-0.53-2.12-0.41-1.84-0.9c0.63-1.11,1.67-0.32,2.49,0.24
		C117.36,51.51,117.14,51.73,116.92,51.95z"/>
	<path class="st0" d="M201.32,52.55c-0.21-0.12-0.61-0.23-0.74-0.47c-0.28-0.53,0.27-0.53,0.54-0.52c0.3,0.02,0.75,0.14,0.85,0.35
		C202.15,52.31,201.8,52.5,201.32,52.55z"/>
	<path class="st0" d="M225.1,31.99c-0.35,0.3-0.55,0.62-0.8,0.67c-0.67,0.14-0.67-0.49-0.68-0.85c-0.01-0.34-0.04-1.04,0.65-0.8
		C224.59,31.12,224.79,31.6,225.1,31.99z"/>
	<path class="st0" d="M197.18,89.47c0.31,0.89,0.53,1.19,0.46,1.41c-0.06,0.22-0.4,0.37-0.62,0.55c-0.13-0.26-0.37-0.51-0.37-0.77
		C196.66,90.38,196.88,90.11,197.18,89.47z"/>
	<path class="st0" d="M232.92,76.42c-0.13-0.18-0.45-0.44-0.41-0.63c0.05-0.24,0.39-0.43,0.6-0.64c0.13,0.16,0.33,0.31,0.39,0.49
		C233.61,76.02,233.44,76.29,232.92,76.42z"/>
	<path class="st0" d="M191.88,91.18c0.49-0.25,0.66,0.2,0.63,0.44c-0.06,0.4-0.26,0.83-0.53,1.12c-0.11,0.12-0.84-0.11-0.83-0.17
		C191.17,92.01,191.29,91.46,191.88,91.18z"/>
	<path class="st0" d="M245.82,54.46c-0.64-0.1-1.74,0.12-1.76-0.48c-0.03-0.78,1-0.48,1.58-0.49c0.64-0.02,1.74-0.13,1.76,0.44
		C247.44,54.68,246.41,54.38,245.82,54.46z"/>
	<path class="st0" d="M188.45,81.37c-0.04-0.1,0.12,0.2,0.21,0.51c0.17,0.63-0.27,0.84-0.73,0.79c-0.23-0.02-0.53-0.41-0.58-0.67
		C187.29,81.68,187.48,81.33,188.45,81.37z"/>
	<path class="st0" d="M222.95,81.88c-0.3-0.08-0.72-0.13-0.52-0.57c0.17-0.37,0.43-0.81,0.76-0.96c0.75-0.34,0.57,0.41,0.56,0.7
		C223.74,81.49,223.49,81.88,222.95,81.88z"/>
	<path class="st0" d="M208.47,84.63c-0.54-1.12,0.25-1.83,1.03-1.95c0.75-0.11,0.35,0.82,0.39,1.31c0,0,0.06-0.07,0.06-0.07
		C209.34,83.93,209.31,85.12,208.47,84.63z"/>
	<path class="st0" d="M216.07,85.17c0.77-0.35,0.75,0.19,0.75,0.39c-0.02,0.41-0.07,0.99-0.33,1.15c-0.26,0.16-0.94,0-0.85-0.62
		C215.7,85.72,215.98,85.37,216.07,85.17z"/>
	<path class="st0" d="M174.04,21.43c-0.35,0.13-0.65,0.35-0.86,0.28c-0.23-0.07-0.53-0.39-0.55-0.63c-0.07-0.62,0.44-0.65,0.82-0.49
		C173.68,20.71,173.8,21.08,174.04,21.43z"/>
	<path class="st0" d="M207.11,82.79c-0.27,0.4-0.39,0.75-0.64,0.9c-0.16,0.1-0.5-0.1-0.76-0.17c0.16-0.27,0.27-0.63,0.5-0.78
		C206.38,82.61,206.73,82.75,207.11,82.79z"/>
	<path class="st0" d="M231.37,76.94c-0.23,0.2-0.42,0.42-0.66,0.54c-0.07,0.04-0.27-0.2-0.42-0.3c0.2-0.21,0.38-0.44,0.61-0.61
		C230.93,76.54,231.16,76.76,231.37,76.94z"/>
	<path class="st0" d="M184.19,86.28c-0.19,0.09-0.43,0.21-0.68,0.33c-0.11-0.24-0.28-0.46-0.31-0.71c-0.01-0.09,0.3-0.29,0.47-0.32
		C184.06,85.53,184.22,85.78,184.19,86.28z"/>
	<path class="st0" d="M211.37,78.24c-0.29,0.32-0.49,0.7-0.66,0.68c-0.24-0.02-0.54-0.29-0.66-0.53c-0.2-0.4,0.17-0.62,0.47-0.62
		C210.76,77.78,211,78.03,211.37,78.24z"/>
	<path class="st0" d="M173.42,54.85c0.09-0.22,0.15-0.53,0.21-0.53c0.3-0.01,0.59,0.08,0.89,0.13c-0.09,0.25-0.18,0.51-0.27,0.76
		C173.98,55.08,173.7,54.96,173.42,54.85z"/>
	<path class="st0" d="M204.44,55.33c-0.29,0.07-0.55,0.19-0.79,0.17c-0.11-0.01-0.21-0.27-0.32-0.41c0.25-0.14,0.49-0.29,0.74-0.43
		C204.17,54.83,204.27,55.02,204.44,55.33z"/>
	<path class="st0" d="M216.93,56.55c-0.15,0.4-0.21,0.79-0.68,0.58c-0.29-0.13-0.72-0.24-0.5-0.67c0.12-0.24,0.46-0.52,0.68-0.5
		C216.62,55.96,216.78,56.36,216.93,56.55z"/>
	<path class="st0" d="M228.43,81.77c0.18-0.53,0.46-1.11,1.03-1.08c0.83,0.05,0.25,0.83,0.46,1.24c0,0,0.07-0.07,0.07-0.07
		c-0.33,0.17-0.65,0.33-0.98,0.5C228.82,82.17,228.62,81.97,228.43,81.77z"/>
	<path class="st2" d="M201.4,88.87c-0.15,0.12-0.3,0.33-0.46,0.35c-0.41,0.03-0.59-0.26-0.47-0.62c0.04-0.13,0.36-0.27,0.52-0.24
		C201.13,88.38,201.23,88.64,201.4,88.87z"/>
	<path class="st0" d="M220.07,85.03c-0.08-0.2-0.15-0.4-0.23-0.61c0.2-0.07,0.42-0.24,0.59-0.19c0.11,0.03,0.26,0.42,0.2,0.53
		C220.54,84.91,220.27,84.94,220.07,85.03z"/>
	<path class="st2" d="M208.47,84.63c0.84,0.49,0.88-0.7,1.48-0.7c-0.1,0.94-0.66,1.61-1.31,2.21c-0.11-0.14-0.13-0.29-0.07-0.46
		c-0.02-0.35-0.03-0.71-0.05-1.06C208.51,84.62,208.47,84.63,208.47,84.63z"/>
	<path class="st0" d="M209.11,79.38c-0.16,0.12-0.31,0.31-0.47,0.32c-0.3,0.02-0.72,0-0.5-0.5c0.07-0.15,0.38-0.26,0.57-0.24
		C208.86,78.98,208.98,79.23,209.11,79.38z"/>
	<path class="st0" d="M141.74,21.7c0.22,0.13,0.48,0.28,0.74,0.44c-0.22,0.19-0.42,0.44-0.68,0.54c-0.13,0.05-0.42-0.15-0.53-0.31
		C140.96,21.93,141.4,21.89,141.74,21.7z"/>
	<path class="st0" d="M227.46,82.9c0.33-0.37,0.65-0.75,0.98-1.12c0.19,0.2,0.38,0.39,0.57,0.59c-0.33,0.35-0.66,0.7-0.99,1.04
		C227.83,83.24,227.64,83.07,227.46,82.9z"/>
	<path class="st2" d="M151.71,48.27c-0.09,0.02-0.21,0.08-0.26,0.04c-0.07-0.05-0.08-0.17-0.12-0.27c0.15-0.03,0.29-0.06,0.44-0.09
		C151.75,48.07,151.73,48.17,151.71,48.27z"/>
	<path class="st0" d="M116.33,54.62c0.17-0.13,0.32-0.29,0.51-0.36c0.38-0.13,0.59,0.07,0.52,0.45c-0.02,0.11-0.34,0.24-0.5,0.22
		C116.67,54.92,116.5,54.74,116.33,54.62z"/>
	<path class="st0" d="M201.9,57.87c0.12,0.11,0.36,0.26,0.34,0.33c-0.05,0.16-0.22,0.28-0.35,0.42c-0.07-0.08-0.21-0.17-0.2-0.24
		C201.72,58.2,201.82,58.04,201.9,57.87z"/>
	<path class="st0" d="M159.18,71.79c-0.26-0.13-0.53-0.25-0.77-0.4c-0.01-0.01,0.11-0.38,0.21-0.41c0.43-0.09,0.82-0.03,0.91,0.52
		C159.41,71.6,159.3,71.7,159.18,71.79z"/>
	<path class="st0" d="M144.07,39.38c0.21,0.23,0.41,0.46,0.62,0.69c-0.16,0.15-0.32,0.3-0.46,0.46c-0.24-0.22-0.47-0.45-0.71-0.67
		C143.7,39.7,143.89,39.54,144.07,39.38z"/>
	<path class="st0" d="M144.94,41.2c-0.24-0.22-0.48-0.44-0.72-0.67c0.15-0.16,0.3-0.31,0.46-0.46c0.23,0.24,0.46,0.48,0.69,0.71
		C145.22,40.92,145.08,41.05,144.94,41.2z"/>
	<path class="st0" d="M145.38,40.79c0.04,0.25,0.09,0.51,0.13,0.76c-0.19-0.12-0.38-0.23-0.57-0.35
		C145.08,41.05,145.22,40.92,145.38,40.79z"/>
	<path class="st0" d="M119.86,51.15c0.02,0.27,0.16,0.69,0.05,0.77c-0.33,0.24-0.46-0.07-0.53-0.36
		C119.53,51.41,119.69,51.27,119.86,51.15z"/>
	<path class="st0" d="M173.65,60.9c-0.28,0.04-0.55,0.07-0.83,0.11c0.11-0.23,0.21-0.45,0.32-0.68
		C173.32,60.51,173.49,60.7,173.65,60.9z"/>
	<path class="st0" d="M159.53,71.51c0.14,0.12,0.29,0.23,0.43,0.35c-0.28,0.27-0.54,0.26-0.77-0.07
		C159.3,71.7,159.41,71.6,159.53,71.51z"/>
	<path class="st0" d="M208.51,84.62c0.02,0.35,0.03,0.71,0.05,1.06c-0.24-0.21-0.65-0.4-0.7-0.65
		C207.79,84.66,208.13,84.51,208.51,84.62z"/>
	<path class="st0" d="M188.4,20.52c-0.29-0.11-0.68-0.23-0.41-0.61c0.08-0.11,0.56,0.06,0.86,0.11
		C188.71,20.2,188.56,20.37,188.4,20.52z"/>
	<path class="st0" d="M112.88,88.81c-1.73,2.57-3.06,4.55-4.41,6.51c-0.07,0.11-0.55,0.11-0.58,0.04c-0.13-0.29-0.31-0.69-0.2-0.93
		c0.23-0.51,0.63-0.94,0.95-1.42c0.37-0.56,0.97-1.24,0.26-1.76c-0.47-0.35-0.95,0.33-1.39,0.7c-0.79,0.66-1.47,2.68-2.23,1.85
		c-1.01-1.1,0.97-1.92,1.66-2.87c0.47-0.65,0.98-1.26,1.48-1.89c0.27-0.34,0.93-0.91,0.96-0.64
		C109.64,91.33,111.56,88.76,112.88,88.81z"/>
	<path class="st0" d="M87.47,69c0.52,0.39,1.03,0.79,1.55,1.18c0.51,0.43,1.01,0.85,1.52,1.28c1.36,1.39,2.51,2.99,4.26,3.96
		c0.32,0.18,1.01,0.2,0.72,0.77c-0.09,0.18-0.89,0.17-1.26,0.01c-1.46-0.68-2.72-1.62-3.86-2.81c-1.99-2.08-4.14-4.01-7.31-4.07
		c-0.35-0.01-1.02,0.25-1-0.45c0.01-0.53,0.54-0.78,1.01-0.7C84.56,68.4,86.02,68.72,87.47,69z"/>
	<path class="st0" d="M142.89,83.31c2.59,0.4,3.03-1.67,3.44-3.33c0.49-2.02-0.12-3.82-2.21-4.86c-0.58-0.29-1.04-0.82-1.55-1.24
		c0.78-0.58,1.47-0.11,2.17,0.19c2.32,1,3.7,4.44,2.77,6.91c-1.07,2.84-3.82,4.55-6.32,3.86c-0.17-0.05-0.21-0.6-0.3-0.92
		l-0.07,0.06c0.69-0.32,1.71,0.3,2.15-0.75L142.89,83.31z"/>
	<path class="st0" d="M134.07,72.74c-0.21,0.67,0.39,1.86-0.67,1.92c-0.88,0.05-0.52-1.05-0.55-1.65c-0.18-4.15-2.25-6.8-6.24-7.99
		c-0.48-0.14-1.18-0.13-1.3-0.87c0.54-0.07,1.1-0.28,1.61-0.2C131.02,64.62,134.14,68.49,134.07,72.74z"/>
	<path class="st0" d="M50.4,92.99c0.02-0.74,0.04-1.48,0.06-2.22l-0.07,0.08c0.8-0.35,5.53-0.69,5.82-0.75
		c1.41-0.3,1.31,0.44,0.93,1.29c-0.25,0.56-0.49,0.89-1.47,0.74c-1.75-0.26-3.69-0.36-5.31,0.83C50.36,92.95,50.4,92.99,50.4,92.99z
		"/>
	<path class="st0" d="M140.88,83.94c-1.24,0.05-2.48,0.15-3.71,0.14c-1.24-0.01-2.43-0.45-2.37-1.85c0.08-1.97,2.11-1.2,2.56-0.91
		c1.73,1.11,3.42,1.29,5.3,0.77c0.07,0.41,0.15,0.82,0.22,1.23c0,0,0.07-0.07,0.07-0.07c-0.7,0.3-1.69-0.23-2.15,0.75L140.88,83.94z
		 M137.6,83.08c0.09-0.07,0.18-0.13,0.27-0.2c-0.2-0.08-0.39-0.18-0.59-0.22c-0.07-0.01-0.18,0.12-0.27,0.19
		C137.21,82.93,137.4,83,137.6,83.08z"/>
	<path class="st0" d="M47.1,80.07c1.34-2.59,0.97-4.85-1.32-6.72c-0.32-0.26-0.99-0.45-0.67-0.91c0.36-0.52,1.04-0.3,1.57-0.05
		c2.6,1.25,3.15,5.48,1.09,8.27C47.54,80.46,47.32,80.27,47.1,80.07z"/>
	<path class="st0" d="M131.02,74.89c0.07,0.97-0.57,1.75-0.59,1.69c-0.7-1.68-1.29-3.41-1.85-5.15c-0.16-0.51,0.13-1.01,0.65-0.71
		C130.97,71.74,130.49,73.73,131.02,74.89z"/>
	<path class="st0" d="M96.46,79.31c-0.35-0.04-0.82-0.03-1.26-0.16c-0.82-0.24-2.21-0.32-2.01-1.27c0.15-0.71,1.38,0,2.12,0.19
		c0.54,0.14,1.12,0.22,1.67,0.19c1.14-0.07,2.22-1.2,3.43-0.22C99.27,78.88,97.96,79.19,96.46,79.31z"/>
	<path class="st0" d="M126.74,76.43c0.1-0.65-0.97-1.83,0.36-1.81c0.96,0.01,0.91,1.43,0.89,2.31c-0.02,0.74,0.05,2.1-0.82,1.94
		C125.56,78.59,127.2,77.22,126.74,76.43z"/>
	<path class="st0" d="M114.67,92.75c-0.75,1.26-1.52,2.61-2.36,3.92c-0.11,0.16-0.73,0.24-0.83,0.13c-0.69-0.86,0.11-1.52,0.54-2.04
		c0.76-0.92,0.98-2.34,2.35-2.71C114.39,92.04,114.52,92.41,114.67,92.75z"/>
	<path class="st0" d="M38.17,66.3c-0.23,0.18-0.45,0.37-0.68,0.55c-0.85,0.27-1.68,0.81-2.58,0.19c-0.03-0.02,0.14-0.51,0.23-0.52
		c1.4-0.06,1.91-2.13,3.39-1.63C39.08,65.08,38.48,65.86,38.17,66.3z"/>
	<path class="st0" d="M118.69,92.64c-0.8,1.36-1.57,2.73-2.41,4.07c-0.09,0.14-0.56,0.12-0.82,0.06c-0.1-0.03-0.23-0.46-0.15-0.59
		c0.84-1.33,1.67-2.67,2.61-3.93C118.2,91.86,118.72,91.94,118.69,92.64z"/>
	<path class="st0" d="M11.04,89.52c-0.47,0.02-0.94,0.03-1.41,0.05c-0.22-0.49-0.44-0.98-0.66-1.47c0,0-0.07,0.04-0.07,0.04
		c0.57,0.07,0.77-0.23,0.76-0.75l-0.03,0.06c0.53,0.39,2.12-2.28,1.79,0.62C10.98,88.48,10.66,88.91,11.04,89.52z"/>
	<path class="st0" d="M123.38,95.79c-0.15-0.29-0.43-0.59-0.37-0.78c0.3-0.97,0.7-1.94,1.64-2.43c0.29-0.15,0.48,0.31,0.38,0.66
		C124.76,94.2,124.52,95.2,123.38,95.79z"/>
	<path class="st0" d="M104.22,88.1c-0.68,0.93-1.35,1.85-2.03,2.78c-1.74-1.5,0.12-2.3,0.74-3.21
		C103.38,86.99,104.09,87.04,104.22,88.1z"/>
	<path class="st0" d="M8.97,88.11c-0.27-0.55-1.86-0.33-0.92-1.59c0.32-0.43,0.51-1.19,1.2-0.93c0.97,0.37-0.71,1.42,0.37,1.87
		c0,0,0.03-0.06,0.03-0.06c-0.95-0.45-0.79,0.21-0.76,0.75L8.97,88.11z"/>
	<path class="st0" d="M45.69,78.56c0,0.92-0.42,1.49-1.09,1.73c-0.43,0.16-1.09-0.2-0.85-0.67c0.32-0.64,0.56-1.54,1.47-1.65
		C45.37,77.94,45.58,78.41,45.69,78.56z"/>
	<path class="st0" d="M128.92,92.22c-0.08,0.5-0.09,1.19-0.81,1.2c-0.58,0.01-0.51-0.61-0.45-1.01c0.09-0.52,0.07-1.27,0.81-1.26
		C129.07,91.15,128.88,91.77,128.92,92.22z"/>
	<path class="st0" d="M120.38,94.61c-0.06-0.3-0.25-0.64-0.15-0.84c0.41-0.79,0.76-1.66,1.68-2.04c0.1,0.27,0.36,0.62,0.27,0.81
		C121.8,93.35,121.44,94.21,120.38,94.61z"/>
	<path class="st0" d="M26.17,71.27c-0.04,0.55,0.04,1.26-0.66,1.37c-0.89,0.14-0.69-0.69-0.69-1.16c-0.01-0.49-0.16-1.25,0.71-1.22
		C26.09,70.29,26.13,70.82,26.17,71.27z"/>
	<path class="st0" d="M116.05,90.78c-0.16,0.17-0.45,0.72-0.89,0.89c-0.73,0.27-0.62-0.45-0.45-0.74c0.25-0.44,0.63-0.88,1.07-1.1
		C116.05,89.69,116.27,90.11,116.05,90.78z"/>
	<path class="st0" d="M50.46,90.77c-0.58-0.04-0.94,1.29-1.59,0.37c-0.46-0.65-0.02-1.38,0.66-1.55c1.15-0.29,0.7,0.75,0.86,1.27
		C50.39,90.85,50.46,90.77,50.46,90.77z"/>
	<path class="st0" d="M60.52,90.98c-0.06,0.06-0.28,0.49-0.62,0.63c-0.69,0.29-0.72-0.41-0.62-0.71c0.11-0.35,0.48-0.72,0.82-0.86
		C60.36,89.92,60.68,90.22,60.52,90.98z"/>
	<path class="st0" d="M119.83,94.88c0.1,0.24,0.29,0.48,0.28,0.72c-0.02,0.54-0.07,1.16-0.71,1.34c-0.7,0.2-0.67-0.39-0.64-0.78
		C118.81,95.58,119.14,95.14,119.83,94.88z"/>
	<path class="st0" d="M135.57,79.56c-0.3-0.28-0.52-0.48-0.73-0.69c0.26-0.13,0.51-0.31,0.79-0.36c0.18-0.03,0.4,0.14,0.6,0.22
		C136.03,78.98,135.83,79.22,135.57,79.56z"/>
	<path class="st0" d="M77.02,75.58c-0.19-0.25-0.61-0.57-0.63-0.9c-0.02-0.53,0.55-0.58,0.94-0.49c0.24,0.05,0.55,0.34,0.6,0.58
		C78.06,75.29,77.7,75.53,77.02,75.58z"/>
	<path class="st0" d="M100.61,87.07c-0.55,0.54-0.57,2.25-1.61,1.49c-0.93-0.68,0.25-1.47,0.98-1.96
		C100.19,86.76,100.4,86.91,100.61,87.07z"/>
	<path class="st0" d="M47.77,80.66c-0.43,0.74-1.02,1.83-1.86,0.97c-0.53-0.54,0.75-1.03,1.2-1.56
		C47.32,80.27,47.54,80.46,47.77,80.66z"/>
	<path class="st0" d="M122.58,77.69c-0.29-0.07-0.68-0.05-0.5-0.53c0.07-0.19,0.29-0.5,0.35-0.48c0.26,0.1,0.59,0.23,0.69,0.45
		C123.3,77.56,122.88,77.6,122.58,77.69z"/>
	<path class="st0" d="M132.12,89.69c0.25,0.15,0.58,0.25,0.57,0.34c-0.02,0.26-0.16,0.51-0.26,0.76c-0.17-0.08-0.49-0.16-0.49-0.24
		C131.94,90.27,132.05,89.99,132.12,89.69z"/>
	<path class="st0" d="M112.58,79.73c-0.15-0.56,0.16-0.67,0.49-0.68c0.2-0.01,0.4,0.13,0.6,0.2c-0.1,0.25-0.17,0.67-0.32,0.7
		C113.1,80,112.8,79.81,112.58,79.73z"/>
	<path class="st0" d="M35.12,62.64c0.16,0.12,0.32,0.24,0.47,0.36c-0.23,0.16-0.47,0.33-0.7,0.49c-0.09-0.19-0.26-0.38-0.25-0.57
		C34.65,62.82,34.95,62.73,35.12,62.64z"/>
	<path class="st0" d="M119.66,91.37c-0.15,0.12-0.29,0.32-0.47,0.35c-0.41,0.06-0.59-0.19-0.41-0.56c0.07-0.15,0.33-0.29,0.51-0.29
		C119.39,90.87,119.5,91.14,119.66,91.37z"/>
	<path class="st0" d="M14.45,91.59c-0.84-0.16-0.7-0.82-0.73-1.4C15.45,89.87,14.93,90.74,14.45,91.59z"/>
	<path class="st0" d="M62.41,88.76c-0.06-0.11-0.1-0.2-0.15-0.3c0.17-0.06,0.34-0.15,0.52-0.17c0.05-0.01,0.13,0.15,0.19,0.24
		C62.78,88.61,62.6,88.68,62.41,88.76z"/>
	<path class="st0" d="M41.17,77.89c0.12,0.15,0.34,0.32,0.32,0.44c-0.04,0.19-0.24,0.36-0.37,0.54c-0.12-0.18-0.32-0.36-0.32-0.54
		C40.79,78.18,41.03,78.04,41.17,77.89z"/>
	<path class="st0" d="M21.43,88.64c0.16,0.14,0.31,0.27,0.46,0.41c-0.17,0.14-0.32,0.33-0.51,0.41c-0.43,0.16-0.61-0.1-0.51-0.47
		C20.93,88.83,21.23,88.75,21.43,88.64z"/>
	<path class="st0" d="M104.95,89.54c-0.03-0.25-0.06-0.49-0.09-0.74c0.18-0.1,0.37-0.16,0.57-0.19c0.25,0.18,0.5,0.35,0.75,0.53
		C105.83,89.46,105.62,90.2,104.95,89.54z"/>
	<path class="st0" d="M99.98,86.6c0.22-0.11,0.44-0.22,0.67-0.33c-0.01,0.27-0.03,0.53-0.04,0.8
		C100.4,86.91,100.19,86.76,99.98,86.6z"/>
	<path class="st0" d="M105.43,88.6c0.25-0.12,0.51-0.23,0.76-0.35c-0.01,0.29-0.01,0.59-0.01,0.88
		C105.92,88.95,105.68,88.78,105.43,88.6z"/>
	<path class="st0" d="M324.19,72.38c2.75-0.14,6.66,3.89,6.43,6.36c-0.15,1.63-2.38-0.11-2.56,1.63c-0.02,0.19-1-0.48-0.86-1.01
		c0.26-0.99-2.78-2.82,0.71-2.99c-0.15-2.05-1.74-2.43-3.3-2.83c-0.54-0.14-1.2-0.13-1.17-0.9
		C323.46,72.52,324.05,72.43,324.19,72.38z M328.26,78.2c0.26-0.14,0.53-0.21,0.54-0.31c0.02-0.19-0.08-0.41-0.17-0.6
		c-0.14-0.31-0.37-0.32-0.45,0C328.12,77.56,328.22,77.86,328.26,78.2z"/>
	<path class="st0" d="M318.56,49.91c0.34,0.34,0.68,0.69,1.01,1.03c0.13,0.44,0.26,0.88,0.38,1.32c0.36,1.28,1.36,3.41,0.2,3.7
		c-1.7,0.42-0.8-1.88-1.31-2.89c-1.46-2.89-3.58-4.98-6.62-6.15c-0.49-0.19-1.37-0.36-1.11-1.02c0.26-0.65,1.01-0.11,1.5,0.04
		C314.98,46.69,316.79,48.27,318.56,49.91z"/>
	<path class="st0" d="M314.23,42.49c0.23,0.47,0.46,0.95,0.69,1.42c-3-0.15-5.65-2.26-8.81-1.58c-0.13,0.03-0.44-0.2-0.45-0.33
		c-0.06-0.62,0.44-0.72,0.89-0.78c1.37-0.17,2.71-0.18,4.06,0.33C311.77,41.99,313.02,42.19,314.23,42.49z"/>
	<path class="st0" d="M318.02,55.48c0.14,0.52-0.03,0.9-0.57,1c-0.58,0.11-0.82-0.35-0.9-0.78c-0.26-1.52-0.84-2.8-2.06-3.81
		c-0.48-0.4-1.82-0.25-1.15-1.44c0.07-0.13,1.27,0.2,1.81,0.53C316.81,51.99,317.45,53.72,318.02,55.48z"/>
	<path class="st0" d="M312.15,84.53c-0.06-0.56,3.09-4.08,3.58-3.98c0.37,0.08,0.66,0.42,0.34,0.68c-1.33,1.07-1.23,3.2-2.93,3.93
		C312.75,85.33,312.22,85.16,312.15,84.53z"/>
	<path class="st0" d="M291.94,70.45c0.7,0.12,1.3,0.4,1.31,1.24c0.01,0.72-0.22,1.41-1.05,1.46c-0.76,0.04-1.25-0.5-1.37-1.23
		C290.71,71.12,291.24,70.71,291.94,70.45z"/>
	<path class="st0" d="M271.38,67.4c0.12-0.19,0.24-0.38,0.36-0.57c0.64-1.03,1.16-2.18,2.47-2.58c0.06,0.2,0.23,0.45,0.16,0.58
		c-0.68,1.23-1.08,2.81-3.02,2.53C271.34,67.35,271.38,67.4,271.38,67.4z"/>
	<path class="st0" d="M334.31,85.97c-0.02-0.66-0.04-1.33-0.05-1.99c0.38-0.24,0.76-0.49,1.15-0.72c0.46-0.28,1.3-0.83,1.35-0.77
		c0.57,0.73-0.13,1.23-0.49,1.74C335.75,84.95,335.43,85.93,334.31,85.97z"/>
	<path class="st0" d="M339.76,84.09c-0.59,0.77-1.26,1.65-1.93,2.52c-0.24-0.18-0.69-0.39-0.67-0.55c0.14-1.23,1.03-1.96,1.97-2.6
		C339.55,83.18,339.67,83.55,339.76,84.09z"/>
	<path class="st0" d="M341.83,86.7c-0.83,0.04-0.82,1.63-1.8,1.12c-0.56-0.29-0.27-1.05,0.15-1.49c0.56-0.58,0.68-1.82,1.88-1.41
		c0.11,0.04-0.17,1.18-0.27,1.82C341.79,86.74,341.83,86.7,341.83,86.7z"/>
	<path class="st0" d="M348.73,86.71c-0.26,0.2-0.53,0.39-0.79,0.59c-0.68,0.51-0.15,2.08-1.51,1.89c-0.65-0.09-0.74-0.88-0.32-1.34
		c0.66-0.73,0.87-2.77,2.59-1.11L348.73,86.71z"/>
	<path class="st0" d="M348.69,86.74c0.21,0.6,0.63,0.42,1.07,0.33c1.1-0.21,1.02,0.56,0.95,1.24c-0.06,0.53-0.52,0.86-0.93,0.76
		c-0.63-0.15-0.81-0.72-0.61-1.36c0.14-0.46,0.17-0.88-0.44-1.02C348.73,86.71,348.69,86.74,348.69,86.74z"/>
	<path class="st0" d="M270.09,61.76c-0.44,0.34-0.84,0.74-1.32,1c-0.79,0.43-0.75,2.04-2.16,1.49c-0.07-0.03-0.03-0.76,0.13-0.84
		c1.08-0.57,1.04-3.52,3.29-1.59C270.04,61.83,270.09,61.76,270.09,61.76z"/>
	<path class="st0" d="M313.88,68.4c0.07,0.54,0.14,1.09,0.21,1.63c-1.14-0.28-2.07-0.97-1.91-2.13
		C312.24,67.5,313.3,68.18,313.88,68.4z"/>
	<path class="st0" d="M273.47,70.19c0.31-1.26,0.92-2.28,2.23-2.68c0.07-0.02,0.38,0.3,0.35,0.39c-0.43,1.26-1.26,2.07-2.63,2.25
		C273.42,70.14,273.47,70.19,273.47,70.19z"/>
	<path class="st0" d="M263.76,63.3c0.26-0.21,0.51-0.44,0.79-0.64c0.61-0.44,0.93-1.31,1.85-1.25c0.03,0,0.16,0.76,0.02,0.86
		c-0.92,0.65-0.8,2.53-2.51,2.17c-0.11-0.02-0.07-0.78-0.1-1.2C263.82,63.24,263.76,63.3,263.76,63.3z"/>
	<path class="st0" d="M344.28,86.48c-0.69,0.61-0.5,2.12-1.71,2.05c-1.02-0.06,0.06-1.42-0.74-1.83c0,0-0.05,0.04-0.05,0.04
		c1.04,0.7,1.28-0.81,2.09-0.75C344,86.17,344.13,86.33,344.28,86.48z"/>
	<path class="st0" d="M312.86,54.36c0.89,0.11,1.28,0.78,1.48,1.56c0.06,0.22-0.26,0.78-0.33,0.76c-0.92-0.15-0.9-1.15-1.43-1.67
		C312.23,54.66,312.48,54.49,312.86,54.36z"/>
	<path class="st0" d="M319.9,86.03c-0.76-0.06-0.89-0.48-0.77-0.94c0.17-0.66,0.5-1.33,1.21-1.44c0.72-0.11,0.56,0.54,0.4,0.89
		C320.5,85.08,320.68,85.95,319.9,86.03z"/>
	<path class="st0" d="M283.23,62.44c0.46,0.05,0.91,0.08,1.37,0.14c0.56,0.08,1.48,0.14,1.37,0.71c-0.17,0.94-1.09,0.4-1.64,0.28
		c-0.52-0.11-0.98-0.5-1.46-0.76C282.99,62.69,283.11,62.57,283.23,62.44z"/>
	<path class="st0" d="M293,53.48c0.51,0.14,1.23-0.13,1.37,0.66c0.02,0.1-0.48,0.44-0.7,0.4c-0.54-0.09-1.37-0.2-1.51-0.54
		C291.88,53.27,292.68,53.63,293,53.48z"/>
	<path class="st0" d="M296.5,81.93c-0.27,0.46-0.28,1.16-0.98,1.24c-0.74,0.08-0.61-0.55-0.54-0.92c0.11-0.59,0.47-1.05,1.16-0.96
		C296.43,81.33,296.8,81.47,296.5,81.93z"/>
	<path class="st0" d="M293.3,55.6c0.49,0.16,1.21-0.03,1.24,0.76c0.01,0.13-0.5,0.45-0.7,0.4c-0.5-0.12-1.26-0.3-1.38-0.65
		C292.21,55.41,292.99,55.77,293.3,55.6z"/>
	<path class="st0" d="M285.92,81.96c-0.17,0.47-0.12,1.06-0.76,0.9c-0.23-0.06-0.58-0.54-0.53-0.64c0.18-0.34,0.52-0.59,0.79-0.88
		C285.6,81.56,285.78,81.78,285.92,81.96z"/>
	<path class="st0" d="M310.73,55.92c-0.28,0.31-0.46,0.51-0.65,0.71c-0.22-0.2-0.48-0.38-0.62-0.62c-0.05-0.08,0.22-0.5,0.31-0.48
		C310.05,55.57,310.31,55.74,310.73,55.92z"/>
	<path class="st0" d="M299.61,83.43c-0.3-0.51-0.61-0.82-0.55-1c0.13-0.39,0.37-0.88,0.71-1.03c0.73-0.33,0.7,0.39,0.62,0.74
		C300.31,82.53,299.97,82.86,299.61,83.43z"/>
	<path class="st0" d="M316.52,83.74c0.6,0.12,0.58,0.63,0.46,1c-0.13,0.38-0.41,0.85-0.75,0.98c-0.66,0.26-0.7-0.4-0.71-0.79
		C315.5,84.3,315.93,83.94,316.52,83.74z"/>
	<path class="st0" d="M283.77,80.9c-0.11,0.2-0.21,0.62-0.44,0.72c-0.54,0.23-0.88-0.17-0.87-0.66c0.01-0.25,0.34-0.58,0.6-0.7
		C283.46,80.08,283.64,80.42,283.77,80.9z"/>
	<path class="st0" d="M334.44,80.82c0.4-0.41,0.53-1.58,1.19-1.13c0.94,0.65,0.01,1.21-0.57,1.65
		C334.86,81.17,334.65,81,334.44,80.82z"/>
	<path class="st0" d="M276.03,70.61c0.77-0.4,0.87,0.1,0.78,0.29c-0.21,0.48-0.53,0.93-0.9,1.3c-0.1,0.1-0.54-0.14-0.83-0.22
		C275.45,71.46,275.81,70.93,276.03,70.61z"/>
	<path class="st0" d="M277.63,75.66c-0.62-0.1-1.46-0.01-1.24-1.02c0.08-0.33,0.67-0.87,0.86-0.8c1.17,0.38,0.06,1.26,0.31,1.87
		C277.57,75.72,277.63,75.66,277.63,75.66z"/>
	<path class="st0" d="M291.32,83.24c-0.16,0.11-0.43,0.42-0.58,0.37c-0.22-0.07-0.35-0.41-0.51-0.63c0.15-0.11,0.29-0.28,0.46-0.33
		C291.05,82.54,291.27,82.73,291.32,83.24z"/>
	<path class="st0" d="M323.23,84.12c0.28,0.17,0.45,0.27,0.62,0.38c-0.15,0.24-0.26,0.51-0.46,0.69c-0.06,0.05-0.54-0.22-0.53-0.27
		C322.93,84.65,323.09,84.4,323.23,84.12z"/>
	<path class="st0" d="M338.74,81.26c-0.38,0.27-0.79,0.69-1.29,0.86c-0.29,0.1-0.57-0.32-0.31-0.65c0.26-0.33,0.61-0.64,0.98-0.83
		C338.45,80.49,338.73,80.69,338.74,81.26z"/>
	<path class="st0" d="M325.13,79.89c-0.17-0.19-0.44-0.39-0.57-0.65c-0.2-0.41,0.11-0.69,0.45-0.64c0.27,0.04,0.57,0.33,0.72,0.59
		C325.98,79.63,325.58,79.74,325.13,79.89z"/>
	<path class="st0" d="M298.14,57.76c0.19,0.08,0.38,0.17,0.58,0.25c-0.18,0.22-0.33,0.47-0.55,0.64c-0.05,0.04-0.4-0.14-0.46-0.28
		C297.56,58.02,297.77,57.81,298.14,57.76z"/>
	<path class="st0" d="M353.11,86.51c0.19,0.44,0.44,0.75,0.36,0.91c-0.1,0.2-0.45,0.32-0.71,0.38c-0.07,0.02-0.34-0.37-0.3-0.49
		C352.55,87.07,352.8,86.89,353.11,86.51z"/>
	<path class="st0" d="M310.33,70.27c0.18-0.14,0.34-0.37,0.5-0.38c0.42-0.02,0.56,0.31,0.45,0.64c-0.04,0.11-0.4,0.2-0.59,0.16
		C310.55,70.67,310.45,70.43,310.33,70.27z"/>
	<path class="st0" d="M299.3,70.9c-0.21-0.53,0.09-0.67,0.4-0.7c0.17-0.02,0.5,0.15,0.5,0.23c0,0.28-0.12,0.56-0.2,0.83
		C299.74,71.13,299.48,70.99,299.3,70.9z"/>
	<path class="st0" d="M322.72,79.91c-0.21,0.3-0.29,0.52-0.42,0.55c-0.19,0.05-0.43,0-0.61-0.09c-0.32-0.14-0.31-0.37,0.02-0.45
		C321.99,79.85,322.29,79.91,322.72,79.91z"/>
	<path class="st0" d="M318.17,83.01c-0.27,0.16-0.52,0.34-0.79,0.45c-0.05,0.02-0.21-0.27-0.32-0.41c0.24-0.17,0.46-0.36,0.72-0.48
		C317.83,82.55,318.01,82.83,318.17,83.01z"/>
	<path class="st0" d="M343.87,85.99c0.2-0.48,0.67-0.75,0.97-0.38c0.36,0.44-0.31,0.61-0.57,0.87
		C344.13,86.33,344,86.17,343.87,85.99z"/>
	<path class="st0" d="M333.87,81.48c0.19-0.22,0.39-0.44,0.58-0.65c0.21,0.17,0.42,0.35,0.62,0.52c-0.22,0.24-0.44,0.49-0.65,0.73
		C334.23,81.88,334.05,81.68,333.87,81.48z"/>
	<path class="st1" d="M159.67,89.11c0.26-0.49,0.52-0.97,0.79-1.46c0.24,0.24,0.47,0.48,0.71,0.72c-0.3,0.4-0.6,0.79-0.91,1.19
		C160.06,89.41,159.87,89.26,159.67,89.11z"/>
	<path class="st1" d="M160.46,87.65c0.43-0.34,0.68-1.42,1.38-0.76c0.61,0.59-0.26,1.05-0.67,1.48
		C160.93,88.13,160.69,87.89,160.46,87.65z"/>
	<path class="st1" d="M159.14,89.78c0.18-0.22,0.36-0.44,0.53-0.67c0.19,0.15,0.39,0.3,0.59,0.45c-0.18,0.28-0.37,0.55-0.55,0.83
		C159.51,90.19,159.33,89.98,159.14,89.78z"/>
	<path class="st1" d="M172.65,92.23c0.1,0.61,0.25,1.26-0.75,0.74C171.93,92.5,171.92,91.99,172.65,92.23z"/>
	<path class="st2" d="M140.81,83.99c0.46-0.98,1.45-0.45,2.15-0.75C142.52,84.29,141.5,83.68,140.81,83.99z"/>
	<path class="st2" d="M137.6,83.08c-0.2-0.08-0.39-0.15-0.58-0.23c0.09-0.07,0.19-0.2,0.27-0.19c0.2,0.04,0.39,0.14,0.59,0.22
		C137.78,82.95,137.69,83.01,137.6,83.08z"/>
	<path class="st1" d="M8.9,88.15c-0.03-0.54-0.19-1.2,0.76-0.75C9.67,87.91,9.47,88.21,8.9,88.15z"/>
	<path class="st2" d="M328.26,78.2c-0.04-0.35-0.14-0.64-0.08-0.9c0.08-0.32,0.31-0.31,0.45,0c0.09,0.19,0.19,0.4,0.17,0.6
		C328.79,77.99,328.52,78.06,328.26,78.2z"/>
</g>
</svg>
